<svg xmlns="http://www.w3.org/2000/svg" xmlns:xlink="http://www.w3.org/1999/xlink" width="500" zoomAndPan="magnify" viewBox="0 0 375 374.999991" height="500" preserveAspectRatio="xMidYMid meet" version="1.0"><defs><clipPath id="c7ee3af0d9"><path d="M 284 107.085938 L 358.660156 107.085938 L 358.660156 117 L 284 117 Z M 284 107.085938 " clip-rule="nonzero"/></clipPath><clipPath id="414d02a544"><path d="M 278 107.085938 L 358.660156 107.085938 L 358.660156 121 L 278 121 Z M 278 107.085938 " clip-rule="nonzero"/></clipPath><clipPath id="5202e5a21c"><path d="M 20 29 L 176 29 L 176 188 L 20 188 Z M 20 29 " clip-rule="nonzero"/></clipPath><clipPath id="51557bf828"><path d="M -16.410156 129.335938 L 81.707031 -10.359375 L 221.402344 87.753906 L 123.285156 227.449219 Z M -16.410156 129.335938 " clip-rule="nonzero"/></clipPath><clipPath id="ddbe5884a1"><path d="M -16.410156 129.335938 L 156.140625 -116.335938 L 348.824219 18.996094 L 176.273438 264.667969 Z M -16.410156 129.335938 " clip-rule="nonzero"/></clipPath><clipPath id="f92355a5f6"><path d="M 16 26 L 180 26 L 180 191 L 16 191 Z M 16 26 " clip-rule="nonzero"/></clipPath><clipPath id="9a837cdc86"><path d="M -16.410156 129.335938 L 81.707031 -10.359375 L 221.402344 87.753906 L 123.285156 227.449219 Z M -16.410156 129.335938 " clip-rule="nonzero"/></clipPath><clipPath id="b749808630"><path d="M -16.410156 129.335938 L 156.140625 -116.335938 L 348.824219 18.996094 L 176.273438 264.667969 Z M -16.410156 129.335938 " clip-rule="nonzero"/></clipPath><clipPath id="c5c19695c3"><path d="M 199 0 L 222 0 L 222 102 L 199 102 Z M 199 0 " clip-rule="nonzero"/></clipPath><clipPath id="854f1aef33"><path d="M -16.410156 129.335938 L 81.707031 -10.359375 L 221.402344 87.753906 L 123.285156 227.449219 Z M -16.410156 129.335938 " clip-rule="nonzero"/></clipPath><clipPath id="69300847f5"><path d="M -16.410156 129.335938 L 156.140625 -116.335938 L 348.824219 18.996094 L 176.273438 264.667969 Z M -16.410156 129.335938 " clip-rule="nonzero"/></clipPath><clipPath id="c68d5d3482"><path d="M 195 0 L 222 0 L 222 105 L 195 105 Z M 195 0 " clip-rule="nonzero"/></clipPath><clipPath id="1c4eae40c2"><path d="M -16.410156 129.335938 L 81.707031 -10.359375 L 221.402344 87.753906 L 123.285156 227.449219 Z M -16.410156 129.335938 " clip-rule="nonzero"/></clipPath><clipPath id="a9e4e380fd"><path d="M -16.410156 129.335938 L 156.140625 -116.335938 L 348.824219 18.996094 L 176.273438 264.667969 Z M -16.410156 129.335938 " clip-rule="nonzero"/></clipPath><clipPath id="76bed22da7"><path d="M 85 99 L 112 99 L 112 126 L 85 126 Z M 85 99 " clip-rule="nonzero"/></clipPath><clipPath id="c464a98774"><path d="M -16.410156 129.335938 L 81.707031 -10.359375 L 221.402344 87.753906 L 123.285156 227.449219 Z M -16.410156 129.335938 " clip-rule="nonzero"/></clipPath><clipPath id="f09c77b9e7"><path d="M -16.410156 129.335938 L 156.140625 -116.335938 L 348.824219 18.996094 L 176.273438 264.667969 Z M -16.410156 129.335938 " clip-rule="nonzero"/></clipPath><clipPath id="ec164e7240"><path d="M 82 95 L 116 95 L 116 129 L 82 129 Z M 82 95 " clip-rule="nonzero"/></clipPath><clipPath id="95bdd35118"><path d="M -16.410156 129.335938 L 81.707031 -10.359375 L 221.402344 87.753906 L 123.285156 227.449219 Z M -16.410156 129.335938 " clip-rule="nonzero"/></clipPath><clipPath id="53a22e928d"><path d="M -16.410156 129.335938 L 156.140625 -116.335938 L 348.824219 18.996094 L 176.273438 264.667969 Z M -16.410156 129.335938 " clip-rule="nonzero"/></clipPath></defs><rect x="-37.5" width="450" fill="#ffffff" y="-37.499999" height="449.999989" fill-opacity="1"/><rect x="-37.5" width="450" fill="#fffcfc" y="-37.499999" height="449.999989" fill-opacity="1"/><path fill="#e6cfc8" d="M 240.699219 243.9375 C 242.183594 244.867188 239.695312 250.171875 239.25 251.324219 C 236.164062 259.347656 232.636719 267.464844 228.59375 275.046875 C 225.148438 281.507812 222.867188 289.316406 218.625 295.328125 C 205.8125 313.480469 162.59375 339.851562 145.746094 314.578125 C 131.589844 293.347656 170.78125 270.363281 184.246094 262.667969 C 189.554688 259.636719 194.542969 257.28125 200.402344 255.449219 C 208.644531 252.875 216.894531 249.953125 225.15625 247.199219 C 227.738281 246.339844 230.367188 244.492188 233.0625 244.105469 C 234.496094 243.902344 238.484375 243.378906 237.1875 242.730469 C 236.140625 242.207031 230.113281 244.195312 228.9375 244.449219 C 222.007812 245.933594 214.714844 246.554688 207.621094 247.199219 C 201.230469 247.78125 194.789062 247.542969 188.371094 247.542969 C 167.878906 247.542969 114.089844 239.082031 120.648438 206.292969 C 123.164062 193.707031 137.941406 192.660156 148.148438 193.226562 C 171.898438 194.546875 194.089844 212.332031 214.15625 223.136719 C 219.621094 226.078125 224.78125 229.308594 230.3125 232.074219 C 233.019531 233.425781 235.578125 235.222656 238.21875 236.542969 C 238.875 236.871094 239.9375 237.917969 239.9375 237.917969 C 239.9375 237.917969 238.492188 237.347656 237.875 236.886719 C 234.984375 234.71875 231.191406 233.019531 228.9375 230.011719 C 223.714844 223.046875 217.75 215.90625 212.433594 208.695312 C 208.742188 203.6875 205.933594 198.4375 203.152344 192.882812 C 193.371094 173.316406 175.675781 125.152344 208.65625 116.910156 C 218.976562 114.332031 226.3125 122.109375 232.71875 128.941406 C 251.855469 149.355469 248.09375 180.378906 246.125 205.945312 C 245.503906 214.046875 246.363281 223.21875 244.40625 231.042969 C 243.59375 234.289062 244.382812 238.035156 243.71875 241.355469 C 243.648438 241.710938 243.375 242.386719 243.375 242.386719 L 243.375 240.667969 C 243.375 237.859375 244.703125 234.378906 245.4375 231.730469 C 246.960938 226.246094 248.851562 220.222656 251.625 215.230469 C 262.300781 196.015625 272.304688 153.945312 301.816406 158.164062 C 326.222656 161.648438 328.601562 188.628906 317.285156 205.605469 C 306.933594 221.128906 265.109375 245.136719 244.75 245.136719 C 243.71875 245.136719 246.828125 245.304688 247.84375 245.136719 C 250.195312 244.746094 252.722656 244.261719 255.0625 243.761719 C 262.5 242.167969 269.808594 240.742188 277.410156 239.980469 C 297.183594 238.003906 322.847656 238.667969 337.914062 253.730469 C 343.1875 259.007812 350.5 266.355469 348.226562 274.703125 C 345.957031 283.019531 335.097656 286.316406 327.597656 286.734375 C 304.214844 288.03125 288.3125 275.015625 269.15625 263.355469 C 263.183594 259.722656 257.921875 255.355469 251.96875 251.667969 C 251.28125 251.242188 244.75 248.171875 244.75 246.511719 C 244.75 244.882812 247.378906 248.453125 248.53125 249.605469 C 250.417969 251.492188 252.136719 253.558594 254.03125 255.449219 C 259.433594 260.851562 263.359375 266.789062 267.78125 272.980469 C 278.972656 288.648438 288.445312 313.058594 283.597656 332.453125 C 281.660156 340.195312 278.179688 349.339844 270.191406 352.738281 C 252.867188 360.105469 241.621094 348.292969 233.75 334.515625 C 221.199219 312.558594 240.699219 268.1875 240.699219 243.9375 Z M 240.699219 243.9375 " fill-opacity="1" fill-rule="evenodd"/><path fill="#e6cfc8" d="M 189.863281 253.253906 L 189.726562 253.3125 C 186.917969 254.582031 184.183594 256.007812 181.359375 257.617188 C 171.617188 263.167969 149.390625 276.464844 140.820312 291.359375 C 135.886719 299.9375 134.957031 309.007812 140.835938 317.851562 C 149.347656 330.648438 163.28125 333.070312 177.945312 329.339844 C 196.207031 324.699219 215.433594 310.214844 223.519531 298.78125 C 224.984375 296.710938 226.257812 294.453125 227.410156 292.101562 C 227.589844 291.738281 227.765625 291.371094 227.9375 291.003906 C 226.875 296.488281 226 301.929688 225.535156 307.140625 C 224.519531 318.527344 225.46875 328.890625 229.921875 336.703125 C 235.238281 346.027344 242.125 354.363281 250.902344 357.75 C 256.933594 360.082031 263.882812 360.253906 271.933594 356.839844 C 275.921875 355.148438 279.039062 352.339844 281.460938 348.921875 C 284.695312 344.367188 286.65625 338.6875 287.949219 333.542969 C 290.078125 325.054688 289.726562 315.679688 287.691406 306.398438 C 284.789062 293.160156 278.464844 280.121094 271.488281 270.335938 L 271.382812 270.183594 C 281.324219 276.449219 290.617188 282.71875 300.785156 286.789062 C 309.011719 290.078125 317.792969 291.96875 327.859375 291.421875 C 333.03125 291.140625 339.574219 289.617188 344.585938 286.445312 C 348.527344 283.945312 351.546875 280.457031 352.78125 275.945312 C 354.019531 271.425781 353.257812 267.109375 351.332031 263.113281 C 348.980469 258.234375 344.757812 253.867188 341.269531 250.371094 C 334.601562 243.6875 326.066406 239.523438 316.792969 237.132812 C 307.839844 234.828125 298.191406 234.195312 289.03125 234.421875 C 303.382812 226.230469 316.15625 216.199219 321.402344 208.347656 C 327.835938 198.722656 330.3125 186.238281 327.792969 175.671875 C 325.132812 164.511719 317.164062 155.304688 302.527344 153.199219 C 291.683594 151.636719 283.042969 155.300781 275.929688 161.863281 C 264.792969 172.128906 257.773438 190.304688 251.46875 204.058594 C 252.675781 188.949219 254.1875 172.175781 251.453125 156.773438 C 249.394531 145.171875 244.972656 134.335938 236.558594 125.34375 C 232.269531 120.757812 227.515625 115.894531 221.980469 113.277344 C 217.625 111.222656 212.8125 110.417969 207.371094 111.773438 C 191.011719 115.84375 184.8125 127.945312 184.265625 142.597656 C 183.582031 160.804688 192.316406 183.230469 198.332031 195.292969 C 200.058594 198.757812 201.804688 202.105469 203.746094 205.355469 C 205.078125 207.582031 206.503906 209.765625 208.078125 211.90625 L 210.113281 214.539062 C 200.042969 208.617188 189.472656 201.636719 178.480469 196.328125 C 168.78125 191.644531 158.746094 188.25 148.460938 187.667969 C 141.453125 187.269531 132.59375 187.722656 125.96875 191.097656 C 120.632812 193.8125 116.550781 198.234375 115.152344 205.191406 C 111.917969 221.285156 120.417969 232.714844 133.753906 240.34375 C 150.65625 250.015625 175.617188 253.230469 188.371094 253.246094 Z M 255.617188 248.585938 L 256.078125 248.5 C 260.46875 247.554688 264.8125 246.664062 269.199219 245.945312 C 272.066406 245.472656 274.957031 245.074219 277.886719 244.777344 C 289.175781 243.636719 302.472656 243.34375 314.421875 246.390625 C 322.023438 248.332031 329.078125 251.625 334.554688 257.089844 C 337.367188 259.898438 340.902344 263.308594 342.804688 267.234375 C 343.746094 269.175781 344.265625 271.257812 343.667969 273.457031 C 342.894531 276.308594 340.484375 278.148438 337.785156 279.460938 C 334.433594 281.089844 330.527344 281.863281 327.339844 282.042969 C 318.753906 282.53125 311.265625 280.90625 304.242188 278.117188 C 292.972656 273.636719 282.855469 266.261719 271.5625 259.40625 Z M 249.53125 239.871094 L 249.925781 239.804688 L 251.949219 239.421875 C 260.75 237.5625 271.648438 232.847656 281.9375 227.15625 C 295.601562 219.601562 308.234375 210.273438 313.167969 202.859375 C 318.050781 195.519531 320.039062 186.03125 318.105469 177.992188 C 316.308594 170.542969 310.882812 164.511719 301.109375 163.128906 C 290.957031 161.691406 283.710938 167.074219 277.914062 174.699219 C 268.140625 187.566406 262.265625 206.558594 256.089844 217.707031 C 255.089844 219.511719 254.222656 221.472656 253.449219 223.484375 C 252.226562 226.660156 251.238281 229.972656 250.375 233.101562 C 250.023438 234.378906 249.527344 235.851562 249.117188 237.34375 C 249.136719 238.101562 249.144531 238.855469 249.101562 239.601562 L 249.074219 239.9375 Z M 243.886719 256.058594 C 241.445312 271.582031 235.730469 290.949219 234.253906 307.910156 C 233.4375 317.300781 233.890625 325.894531 237.574219 332.332031 C 241.148438 338.566406 245.398438 344.425781 250.804688 347.816406 C 255.636719 350.847656 261.433594 351.628906 268.445312 348.636719 C 271.523438 347.324219 273.667969 344.832031 275.292969 341.992188 C 277.1875 338.671875 278.378906 334.855469 279.246094 331.367188 C 281.480469 322.390625 280.300781 312.257812 277.359375 302.558594 C 274.332031 292.589844 269.40625 283.074219 264.078125 275.628906 C 261.453125 271.964844 259.011719 268.394531 256.324219 264.972656 C 254.621094 262.808594 252.820312 260.707031 250.796875 258.6875 L 246.027344 253.628906 C 245.707031 253.445312 245.382812 253.25 245.066406 253.054688 L 244.890625 253.496094 C 244.5625 254.347656 244.230469 255.203125 243.886719 256.058594 Z M 239.195312 230.832031 L 235.394531 228.675781 C 234.613281 228.109375 233.863281 227.507812 233.289062 226.746094 L 216.792969 205.488281 C 215.066406 203.152344 213.550781 200.757812 212.136719 198.304688 C 210.671875 195.761719 209.320312 193.15625 207.976562 190.472656 C 202.519531 179.59375 194.34375 159.425781 194.925781 142.984375 C 195.269531 133.1875 199.003906 124.792969 209.9375 122.046875 C 213.554688 121.140625 216.632812 122.148438 219.382812 123.890625 C 222.921875 126.132812 225.984375 129.464844 228.878906 132.542969 C 235.863281 139.980469 239.433594 149.003906 241.160156 158.613281 C 243.910156 173.929688 242.089844 190.6875 240.964844 205.550781 C 240.539062 211.179688 240.828125 217.332031 240.390625 223.1875 C 240.21875 225.457031 239.9375 227.683594 239.410156 229.792969 C 239.328125 230.136719 239.253906 230.480469 239.195312 230.832031 Z M 233.253906 250.066406 C 231.855469 253.683594 230.363281 257.3125 228.773438 260.894531 C 227.0625 264.746094 225.234375 268.546875 223.285156 272.214844 C 220.855469 276.78125 218.992188 282.003906 216.640625 286.816406 C 215.769531 288.59375 214.832031 290.304688 213.730469 291.871094 C 206.878906 301.597656 190.515625 313.859375 175.007812 317.839844 C 165.496094 320.28125 156.195312 319.601562 150.652344 311.308594 C 146.316406 304.820312 149.507812 298.242188 154.550781 292.199219 C 163.730469 281.203125 179.644531 272.011719 187.132812 267.722656 C 189.625 266.292969 192.039062 265.023438 194.519531 263.898438 C 196.949219 262.796875 199.441406 261.832031 202.132812 260.984375 L 226.980469 252.675781 Z M 229.921875 238.121094 L 230.050781 238.210938 C 228.992188 238.5 228.121094 238.746094 227.734375 238.828125 C 225.101562 239.394531 222.417969 239.828125 219.710938 240.1875 C 215.519531 240.742188 211.277344 241.117188 207.105469 241.5 C 204.691406 241.722656 202.269531 241.820312 199.84375 241.855469 C 196.023438 241.917969 192.191406 241.835938 188.371094 241.839844 C 176.9375 241.851562 154.519531 239.179688 139.347656 230.539062 C 130.402344 225.445312 124 218.179688 126.144531 207.390625 C 126.957031 203.308594 129.914062 201.242188 133.347656 200.105469 C 137.957031 198.578125 143.398438 198.542969 147.839844 198.789062 C 156.703125 199.269531 165.316406 202.289062 173.675781 206.304688 C 186.976562 212.691406 199.640625 221.570312 211.550781 227.96875 L 227.867188 236.964844 Z M 229.921875 238.121094 " fill-opacity="1" fill-rule="evenodd"/><g clip-path="url(#c7ee3af0d9)"><path fill="#e6cfc8" d="M 370.085938 27.601562 C 371.144531 28.34375 369.371094 32.585938 369.054688 33.507812 C 366.859375 39.921875 364.347656 46.414062 361.46875 52.472656 C 359.019531 57.640625 357.394531 63.882812 354.375 68.691406 C 345.253906 83.203125 314.496094 104.289062 302.503906 84.082031 C 292.429688 67.105469 320.324219 48.730469 329.90625 42.578125 C 333.6875 40.152344 337.234375 38.269531 341.40625 36.804688 C 347.273438 34.746094 353.144531 32.410156 359.023438 30.207031 C 360.863281 29.519531 362.734375 28.042969 364.652344 27.734375 C 365.671875 27.570312 368.507812 27.152344 367.585938 26.636719 C 366.839844 26.21875 362.550781 27.808594 361.714844 28.011719 C 356.785156 29.195312 351.59375 29.695312 346.546875 30.207031 C 341.996094 30.671875 337.410156 30.484375 332.84375 30.484375 C 318.257812 30.484375 279.976562 23.71875 284.644531 -2.5 C 286.433594 -12.558594 296.949219 -13.398438 304.214844 -12.945312 C 321.117188 -11.890625 336.914062 2.328125 351.195312 10.96875 C 355.085938 13.320312 358.757812 15.902344 362.695312 18.113281 C 364.621094 19.195312 366.441406 20.632812 368.320312 21.6875 C 368.789062 21.949219 369.542969 22.789062 369.542969 22.789062 C 369.542969 22.789062 368.515625 22.332031 368.078125 21.960938 C 366.019531 20.230469 363.320312 18.871094 361.714844 16.464844 C 357.996094 10.898438 353.753906 5.1875 349.96875 -0.574219 C 347.34375 -4.582031 345.339844 -8.777344 343.363281 -13.21875 C 336.402344 -28.863281 323.808594 -67.375 347.28125 -73.964844 C 354.625 -76.027344 359.847656 -69.808594 364.40625 -64.34375 C 378.027344 -48.023438 375.347656 -23.21875 373.949219 -2.773438 C 373.503906 3.699219 374.117188 11.035156 372.726562 17.289062 C 372.148438 19.886719 372.707031 22.878906 372.234375 25.535156 C 372.183594 25.820312 371.992188 26.359375 371.992188 26.359375 L 371.992188 24.988281 C 371.992188 22.742188 372.933594 19.960938 373.460938 17.839844 C 374.542969 13.457031 375.890625 8.640625 377.863281 4.644531 C 385.460938 -10.714844 392.582031 -44.351562 413.585938 -40.980469 C 430.957031 -38.191406 432.648438 -16.621094 424.59375 -3.050781 C 417.230469 9.363281 387.460938 28.558594 372.96875 28.558594 C 372.234375 28.558594 374.449219 28.695312 375.171875 28.558594 C 376.847656 28.246094 378.644531 27.859375 380.308594 27.460938 C 385.605469 26.1875 390.804688 25.042969 396.214844 24.4375 C 410.289062 22.855469 428.554688 23.386719 439.277344 35.429688 C 443.03125 39.648438 448.234375 45.527344 446.617188 52.199219 C 445 58.851562 437.273438 61.484375 431.9375 61.816406 C 415.292969 62.855469 403.972656 52.449219 390.339844 43.128906 C 386.089844 40.21875 382.34375 36.730469 378.109375 33.78125 C 377.621094 33.441406 372.96875 30.984375 372.96875 29.660156 C 372.96875 28.355469 374.84375 31.210938 375.660156 32.132812 C 377.003906 33.640625 378.226562 35.292969 379.574219 36.804688 C 383.421875 41.125 386.214844 45.871094 389.363281 50.824219 C 397.328125 63.347656 404.070312 82.867188 400.617188 98.375 C 399.242188 104.5625 396.761719 111.875 391.074219 114.59375 C 378.75 120.480469 370.742188 111.039062 365.140625 100.023438 C 356.210938 82.464844 370.085938 46.992188 370.085938 27.601562 Z M 370.085938 27.601562 " fill-opacity="1" fill-rule="evenodd"/></g><g clip-path="url(#414d02a544)"><path fill="#e6cfc8" d="M 329.367188 36.078125 C 328.503906 36.585938 327.640625 37.121094 326.765625 37.679688 C 319.5625 42.289062 303.042969 53.460938 297.050781 65.875 C 293.726562 72.765625 293.246094 80.015625 297.433594 87.09375 C 304.042969 98.269531 314.898438 100.253906 326.304688 96.90625 C 338.957031 93.195312 352.207031 82.34375 358.53125 73.25 C 358.328125 74.875 358.160156 76.488281 358.03125 78.070312 C 357.292969 87.296875 358 95.695312 361.207031 102.027344 C 365.003906 109.519531 369.980469 116.203125 376.1875 119.128906 C 380.976562 121.382812 386.527344 121.699219 393 118.617188 C 396.121094 117.132812 398.566406 114.660156 400.433594 111.628906 C 402.691406 107.96875 404.082031 103.449219 405 99.351562 C 406.875 90.984375 406.082031 81.539062 403.691406 72.484375 C 401.800781 65.34375 398.929688 58.457031 395.6875 52.574219 C 401.054688 56.390625 406.289062 59.976562 411.882812 62.53125 C 418.058594 65.351562 424.65625 66.972656 432.230469 66.511719 C 436.273438 66.265625 441.402344 64.890625 445.261719 62.03125 C 448.113281 59.917969 450.300781 57.035156 451.210938 53.3125 C 452.105469 49.652344 451.585938 46.152344 450.230469 42.90625 C 448.53125 38.832031 445.410156 35.179688 442.828125 32.269531 C 437.976562 26.804688 431.792969 23.367188 425.058594 21.363281 C 419.570312 19.730469 413.710938 19.074219 408 19 C 417.324219 12.683594 425.363281 5.332031 428.851562 -0.523438 C 434.390625 -9.828125 435.847656 -22.386719 432.082031 -31.785156 C 429.207031 -38.960938 423.476562 -44.457031 414.378906 -45.933594 C 405.699219 -47.339844 398.816406 -43.921875 393.234375 -37.777344 C 387.589844 -31.5625 383.433594 -22.15625 379.871094 -13.320312 C 380.453125 -22.753906 380.714844 -32.597656 379.300781 -41.839844 C 377.839844 -51.398438 374.609375 -60.324219 368.453125 -67.722656 C 365.355469 -71.449219 361.890625 -75.378906 357.910156 -77.574219 C 354.324219 -79.554688 350.351562 -80.328125 345.84375 -79.070312 C 333.464844 -75.613281 328.625 -65.351562 328.359375 -52.816406 C 328.046875 -38.28125 334.183594 -20.597656 338.429688 -11.023438 C 339.660156 -8.242188 340.90625 -5.554688 342.292969 -2.949219 C 342.710938 -2.160156 343.144531 -1.375 343.597656 -0.601562 C 336.640625 -5.351562 329.378906 -10.347656 321.867188 -13.796875 C 316.234375 -16.386719 310.453125 -18.132812 304.5625 -18.507812 C 299.050781 -18.863281 292.0625 -18.363281 286.953125 -15.226562 C 283.125 -12.871094 280.144531 -9.203125 279.117188 -3.484375 C 276.820312 9.328125 282.601562 18.492188 291.773438 24.808594 C 302.796875 32.402344 319.132812 35.488281 329.367188 36.078125 Z M 383.082031 31.78125 C 385.109375 31.300781 387.125 30.84375 389.152344 30.441406 C 391.660156 29.945312 394.179688 29.523438 396.753906 29.230469 C 404.660156 28.328125 413.996094 28.078125 422.347656 30.535156 C 427.394531 32.019531 432.078125 34.511719 435.722656 38.59375 C 437.414062 40.488281 439.46875 42.734375 440.867188 45.289062 C 441.835938 47.0625 442.523438 48.996094 442.019531 51.082031 C 441.5625 52.992188 440.148438 54.257812 438.554688 55.160156 C 436.359375 56.40625 433.757812 56.992188 431.644531 57.125 C 425.730469 57.503906 420.585938 56.210938 415.753906 54.023438 C 407.902344 50.464844 400.839844 44.675781 392.957031 39.300781 Z M 377.546875 23.09375 L 378.433594 19.070312 C 379.042969 16.59375 379.734375 13.976562 380.59375 11.460938 C 381.132812 9.875 381.738281 8.332031 382.441406 6.910156 C 386.722656 -1.78125 390.789062 -16.425781 397.4375 -26.679688 C 401.277344 -32.601562 405.929688 -37.121094 412.789062 -36.027344 C 419.347656 -34.988281 422.773438 -30.199219 423.851562 -24.535156 C 425.027344 -18.355469 423.648438 -11.167969 420.339844 -5.574219 C 416.953125 0.152344 408.3125 7.320312 398.945312 13.195312 C 391.859375 17.644531 384.34375 21.40625 378.234375 22.949219 Z M 373.222656 39.832031 L 373.910156 37.933594 L 374.09375 37.410156 L 376.148438 39.855469 C 377.574219 41.449219 378.839844 43.109375 380.035156 44.816406 C 381.933594 47.53125 383.660156 50.367188 385.511719 53.273438 C 389.308594 59.21875 392.8125 66.839844 394.941406 74.8125 C 396.976562 82.421875 397.792969 90.359375 396.234375 97.398438 C 395.640625 100.085938 394.839844 103.015625 393.558594 105.585938 C 392.507812 107.695312 391.175781 109.597656 389.152344 110.566406 C 384.636719 112.730469 380.929688 112.097656 377.851562 109.808594 C 374.273438 107.144531 371.46875 102.714844 369.074219 98.023438 C 366.480469 92.949219 366.195312 86.167969 366.765625 78.757812 C 367.742188 66.101562 371.339844 51.777344 373.222656 39.832031 Z M 367.933594 14.964844 L 367.410156 14.632812 C 366.980469 14.28125 366.5625 13.90625 366.25 13.4375 L 354.503906 -3.550781 C 353.292969 -5.394531 352.222656 -7.285156 351.230469 -9.222656 C 350.199219 -11.234375 349.246094 -13.296875 348.300781 -15.414062 C 344.492188 -23.941406 338.800781 -39.648438 339.042969 -52.605469 C 339.179688 -60.121094 341.296875 -66.765625 348.714844 -68.859375 C 350.75 -69.433594 352.453125 -68.667969 353.996094 -67.542969 C 356.363281 -65.816406 358.410156 -63.292969 360.359375 -60.964844 C 365.296875 -55.066406 367.761719 -47.878906 368.953125 -40.242188 C 370.84375 -28.117188 369.566406 -14.878906 368.78125 -3.128906 C 368.480469 1.371094 368.6875 6.285156 368.378906 10.964844 C 368.289062 12.328125 368.152344 13.667969 367.933594 14.964844 Z M 362.085938 35.109375 C 361.398438 37.039062 360.675781 38.964844 359.921875 40.875 C 358.710938 43.945312 357.417969 46.972656 356.035156 49.894531 C 354.308594 53.542969 352.984375 57.722656 351.3125 61.570312 C 350.710938 62.953125 350.066406 64.285156 349.304688 65.503906 C 344.632812 72.960938 333.535156 82.382812 322.949219 85.523438 C 316.964844 87.296875 311.0625 86.925781 307.574219 81.074219 C 304.773438 76.367188 306.765625 71.578125 309.921875 67.167969 C 316.253906 58.316406 327.722656 50.90625 333.050781 47.472656 C 334.761719 46.371094 336.417969 45.390625 338.121094 44.519531 C 339.78125 43.671875 341.484375 42.929688 343.328125 42.277344 L 361.046875 35.617188 Z M 359.554688 22.609375 C 358.007812 22.957031 356.433594 23.234375 354.851562 23.46875 C 351.894531 23.910156 348.902344 24.207031 345.964844 24.511719 C 344.304688 24.683594 342.640625 24.757812 340.976562 24.789062 C 338.265625 24.835938 335.550781 24.773438 332.84375 24.777344 C 324.742188 24.789062 308.613281 22.644531 298.171875 15.496094 C 292.597656 11.679688 288.796875 6.257812 290.167969 -1.515625 C 290.628906 -4.136719 292.210938 -5.582031 294.152344 -6.355469 C 297.210938 -7.574219 300.886719 -7.5625 303.871094 -7.378906 C 309.980469 -7.007812 315.902344 -4.613281 321.667969 -1.484375 C 331.03125 3.597656 339.953125 10.609375 348.347656 15.671875 Z M 359.554688 22.609375 " fill-opacity="1" fill-rule="evenodd"/></g><path fill="#d8990b" d="M 234.375 225.285156 C 235.027344 225.285156 235.675781 225.316406 236.324219 225.375 C 236.96875 225.433594 237.613281 225.519531 238.25 225.636719 C 238.890625 225.753906 239.519531 225.898438 240.140625 226.074219 C 240.765625 226.25 241.375 226.449219 241.976562 226.679688 C 242.578125 226.90625 243.167969 227.164062 243.738281 227.445312 C 244.3125 227.726562 244.871094 228.035156 245.414062 228.367188 C 245.953125 228.703125 246.476562 229.058594 246.976562 229.4375 C 247.480469 229.816406 247.960938 230.21875 248.421875 230.644531 C 248.882812 231.066406 249.320312 231.507812 249.730469 231.972656 C 250.144531 232.433594 250.53125 232.914062 250.894531 233.414062 C 251.253906 233.910156 251.589844 234.425781 251.894531 234.953125 C 252.203125 235.480469 252.480469 236.023438 252.730469 236.574219 C 252.976562 237.128906 253.195312 237.691406 253.386719 238.265625 C 253.574219 238.839844 253.734375 239.417969 253.859375 240.003906 C 253.984375 240.59375 254.082031 241.183594 254.144531 241.78125 C 254.210938 242.375 254.242188 242.972656 254.242188 243.574219 C 254.242188 244.171875 254.210938 244.769531 254.144531 245.367188 C 254.082031 245.960938 253.984375 246.554688 253.859375 247.140625 C 253.734375 247.726562 253.574219 248.308594 253.386719 248.882812 C 253.195312 249.453125 252.976562 250.019531 252.730469 250.570312 C 252.480469 251.125 252.203125 251.664062 251.894531 252.191406 C 251.589844 252.722656 251.253906 253.234375 250.894531 253.730469 C 250.53125 254.230469 250.144531 254.710938 249.730469 255.171875 C 249.320312 255.636719 248.882812 256.078125 248.421875 256.503906 C 247.960938 256.925781 247.480469 257.328125 246.976562 257.707031 C 246.476562 258.089844 245.953125 258.445312 245.414062 258.777344 C 244.871094 259.109375 244.3125 259.417969 243.738281 259.699219 C 243.167969 259.984375 242.578125 260.238281 241.976562 260.46875 C 241.375 260.695312 240.765625 260.898438 240.140625 261.070312 C 239.519531 261.246094 238.890625 261.390625 238.25 261.507812 C 237.613281 261.625 236.96875 261.710938 236.324219 261.769531 C 235.675781 261.828125 235.027344 261.859375 234.375 261.859375 C 233.726562 261.859375 233.074219 261.828125 232.429688 261.769531 C 231.78125 261.710938 231.136719 261.625 230.5 261.507812 C 229.863281 261.390625 229.230469 261.246094 228.609375 261.070312 C 227.984375 260.898438 227.375 260.695312 226.773438 260.46875 C 226.171875 260.238281 225.585938 259.984375 225.011719 259.699219 C 224.4375 259.417969 223.878906 259.109375 223.339844 258.777344 C 222.796875 258.445312 222.277344 258.089844 221.773438 257.707031 C 221.269531 257.328125 220.789062 256.925781 220.328125 256.503906 C 219.867188 256.078125 219.433594 255.636719 219.019531 255.171875 C 218.605469 254.710938 218.21875 254.230469 217.859375 253.730469 C 217.496094 253.234375 217.164062 252.722656 216.855469 252.191406 C 216.550781 251.664062 216.269531 251.125 216.023438 250.570312 C 215.773438 250.019531 215.554688 249.453125 215.367188 248.882812 C 215.175781 248.308594 215.019531 247.726562 214.890625 247.140625 C 214.765625 246.554688 214.667969 245.960938 214.605469 245.367188 C 214.542969 244.769531 214.511719 244.171875 214.511719 243.574219 C 214.511719 242.972656 214.542969 242.375 214.605469 241.78125 C 214.667969 241.183594 214.765625 240.59375 214.890625 240.003906 C 215.019531 239.417969 215.175781 238.839844 215.367188 238.265625 C 215.554688 237.691406 215.773438 237.128906 216.023438 236.574219 C 216.269531 236.023438 216.550781 235.480469 216.855469 234.953125 C 217.164062 234.425781 217.496094 233.910156 217.859375 233.414062 C 218.21875 232.914062 218.605469 232.433594 219.019531 231.972656 C 219.433594 231.507812 219.867188 231.066406 220.328125 230.644531 C 220.789062 230.21875 221.269531 229.816406 221.773438 229.4375 C 222.277344 229.058594 222.796875 228.703125 223.339844 228.367188 C 223.878906 228.035156 224.4375 227.726562 225.011719 227.445312 C 225.585938 227.164062 226.171875 226.90625 226.773438 226.679688 C 227.375 226.449219 227.984375 226.25 228.609375 226.074219 C 229.230469 225.898438 229.863281 225.753906 230.5 225.636719 C 231.136719 225.519531 231.78125 225.433594 232.429688 225.375 C 233.074219 225.316406 233.726562 225.285156 234.375 225.285156 Z M 234.375 225.285156 " fill-opacity="1" fill-rule="nonzero"/><path fill="#d8990b" d="M 210.203125 243.574219 C 210.109375 250.046875 212.980469 255.925781 217.628906 260.15625 C 221.941406 264.078125 227.847656 266.507812 234.375 266.601562 C 240.960938 266.699219 246.949219 264.3125 251.414062 260.484375 C 256.324219 256.269531 259.324219 250.242188 259.421875 243.574219 C 259.519531 236.84375 256.53125 230.730469 251.703125 226.335938 C 247.242188 222.277344 241.128906 219.769531 234.375 219.671875 C 227.566406 219.570312 221.378906 222.046875 216.761719 226.007812 C 211.660156 230.382812 208.558594 236.648438 208.457031 243.574219 Z M 220.5625 243.574219 C 220.515625 240.132812 222.019531 237 224.488281 234.753906 C 227.039062 232.433594 230.515625 230.960938 234.375 230.902344 C 238.292969 230.847656 241.898438 232.148438 244.554688 234.425781 C 247.230469 236.722656 249.007812 239.941406 249.0625 243.574219 C 249.113281 247.269531 247.496094 250.632812 244.84375 253.046875 C 242.144531 255.503906 238.460938 257.058594 234.375 257.117188 C 230.234375 257.175781 226.429688 255.785156 223.621094 253.375 C 220.753906 250.917969 218.875 247.464844 218.816406 243.574219 Z M 220.5625 243.574219 " fill-opacity="1" fill-rule="evenodd"/><g clip-path="url(#5202e5a21c)"><g clip-path="url(#51557bf828)"><g clip-path="url(#ddbe5884a1)"><path fill="#e1ad37" d="M 101.910156 115.054688 C 102.375 116.160156 98.890625 118.152344 98.183594 118.625 C 93.292969 121.910156 88.117188 125.074219 82.863281 127.730469 C 78.386719 130 74.03125 133.480469 69.28125 135.179688 C 54.945312 140.3125 20.316406 138.078125 20.824219 117.269531 C 21.246094 99.785156 52.285156 102.332031 62.867188 103.320312 C 67.039062 103.710938 70.761719 104.355469 74.773438 105.636719 C 80.410156 107.4375 86.1875 109.050781 91.90625 110.757812 C 93.695312 111.292969 95.894531 111.292969 97.558594 112.136719 C 98.445312 112.589844 100.886719 113.867188 100.414062 112.992188 C 100.03125 112.285156 95.867188 111.027344 95.109375 110.707031 C 90.640625 108.808594 86.300781 106.285156 82.070312 103.851562 C 78.257812 101.660156 74.738281 98.992188 71.136719 96.460938 C 59.644531 88.390625 32.8125 62.453125 49.40625 46.648438 C 55.773438 40.582031 64.472656 45.8125 69.976562 50.152344 C 82.777344 60.25 88.214844 78.964844 95.214844 92.929688 C 97.121094 96.734375 98.742188 100.578125 100.753906 104.308594 C 101.742188 106.132812 102.46875 108.148438 103.429688 109.929688 C 103.667969 110.371094 103.851562 111.375 103.851562 111.375 C 103.851562 111.375 103.265625 110.488281 103.101562 109.984375 C 102.332031 107.628906 100.875 105.183594 100.796875 102.609375 C 100.609375 96.644531 100.078125 90.292969 99.9375 84.152344 C 99.839844 79.890625 100.332031 75.839844 100.960938 71.628906 C 103.183594 56.800781 112.230469 22.816406 133.976562 31.183594 C 140.777344 33.800781 141.832031 41.058594 142.730469 47.410156 C 145.425781 66.398438 131.089844 82.316406 119.917969 95.882812 C 116.378906 100.179688 113.246094 105.664062 109.066406 109.28125 C 107.332031 110.78125 106.300781 113.191406 104.617188 114.792969 C 104.4375 114.964844 104.019531 115.238281 104.019531 115.238281 L 104.695312 114.273438 C 105.804688 112.699219 107.917969 111.269531 109.375 110.074219 C 112.390625 107.597656 115.824219 104.964844 119.34375 103.253906 C 132.902344 96.683594 155.085938 77.03125 169.976562 91.019531 C 182.292969 102.589844 172.996094 118.660156 159.964844 123.722656 C 148.042969 128.351562 115.125 125.34375 103.707031 117.320312 C 103.128906 116.914062 104.804688 118.234375 105.441406 118.539062 C 106.917969 119.246094 108.523438 119.972656 110.035156 120.613281 C 114.832031 122.648438 119.492188 124.726562 124.054688 127.292969 C 135.925781 133.976562 150.058594 144.457031 152.574219 158.839844 C 153.453125 163.878906 154.660156 170.882812 150.097656 174.664062 C 145.546875 178.4375 138.160156 176.007812 133.789062 173.289062 C 120.164062 164.804688 116.371094 151.238281 110.21875 137.15625 C 108.300781 132.761719 107.070312 128.242188 105.183594 123.828125 C 104.964844 123.320312 102.511719 119.023438 103.164062 118.09375 C 103.808594 117.179688 103.875 120.21875 104.066406 121.316406 C 104.382812 123.117188 104.535156 124.953125 104.851562 126.761719 C 105.753906 131.917969 105.617188 136.796875 105.65625 142.011719 C 105.761719 155.207031 101.460938 172.628906 91.097656 181.597656 C 86.964844 185.175781 81.410156 188.933594 75.589844 187.691406 C 62.972656 185 61.316406 173.945312 62.328125 163.117188 C 63.941406 145.859375 92.355469 128.65625 101.910156 115.054688 Z M 101.910156 115.054688 " fill-opacity="1" fill-rule="evenodd"/></g></g></g><g clip-path="url(#f92355a5f6)"><g clip-path="url(#9a837cdc86)"><g clip-path="url(#b749808630)"><path fill="#e1ad37" d="M 69.726562 100.253906 L 69.625 100.234375 C 67.550781 99.835938 65.453125 99.558594 63.238281 99.351562 C 55.585938 98.625 37.882812 97.328125 27.207031 102.304688 C 21.0625 105.171875 16.96875 109.890625 16.78125 117.167969 C 16.515625 127.699219 23.375 134.546875 33.066406 138.230469 C 45.140625 142.820312 61.628906 142.269531 70.667969 139.046875 C 72.304688 138.460938 73.90625 137.695312 75.480469 136.832031 C 75.726562 136.699219 75.96875 136.5625 76.210938 136.425781 C 73.453125 139.082031 70.820312 141.789062 68.503906 144.527344 C 63.449219 150.515625 59.902344 156.703125 59.320312 162.835938 C 58.628906 170.160156 59.207031 177.546875 62.796875 182.90625 C 65.261719 186.589844 69.089844 189.421875 74.953125 190.679688 C 77.855469 191.300781 80.707031 190.957031 83.414062 189.992188 C 87.019531 188.710938 90.359375 186.296875 93.109375 183.921875 C 97.648438 180 101.144531 174.605469 103.660156 168.597656 C 107.246094 160.03125 108.835938 150.222656 108.777344 141.988281 L 108.777344 141.859375 C 111.886719 149.289062 114.628906 156.46875 118.726562 162.753906 C 122.046875 167.84375 126.226562 172.363281 132.089844 176.019531 C 135.101562 177.898438 139.367188 179.625 143.429688 179.816406 C 146.625 179.96875 149.691406 179.203125 152.164062 177.15625 C 154.636719 175.109375 155.910156 172.386719 156.402344 169.390625 C 157.007812 165.726562 156.359375 161.613281 155.78125 158.28125 C 154.671875 151.90625 151.527344 146.207031 147.265625 141.214844 C 143.152344 136.390625 137.992188 132.238281 132.765625 128.753906 C 144.039062 129.8125 155.15625 129.222656 161.191406 126.882812 C 168.59375 124.019531 174.898438 117.992188 177.648438 111.074219 C 180.554688 103.765625 179.707031 95.460938 172.328125 88.515625 C 166.863281 83.367188 160.570312 82.019531 154 82.898438 C 143.710938 84.269531 132.609375 91.699219 123.65625 96.929688 C 130.285156 88.929688 137.742188 80.117188 142.277344 70.402344 C 145.691406 63.085938 147.480469 55.265625 146.304688 46.90625 C 145.703125 42.644531 144.953125 38.046875 142.878906 34.394531 C 141.246094 31.527344 138.863281 29.179688 135.277344 27.796875 C 124.5 23.636719 116.253906 27.980469 110.175781 35.984375 C 102.621094 45.925781 98.6875 61.945312 97.308594 71.082031 C 96.910156 73.703125 96.570312 76.269531 96.378906 78.855469 C 96.25 80.632812 96.191406 82.417969 96.230469 84.238281 L 96.332031 86.515625 C 93.019531 79.226562 89.839844 71.148438 85.765625 63.839844 C 82.171875 57.394531 77.878906 51.535156 72.339844 47.15625 C 68.566406 44.175781 63.417969 40.9375 58.375 40.222656 C 54.3125 39.640625 50.28125 40.515625 46.757812 43.867188 C 38.601562 51.617188 38.867188 61.375 43.339844 70.90625 C 49.011719 82.992188 61.742188 94.628906 68.890625 99.660156 Z M 108.445312 123.539062 L 108.738281 123.671875 C 111.570312 124.867188 114.355469 126.082031 117.101562 127.40625 C 118.894531 128.269531 120.671875 129.183594 122.433594 130.171875 C 129.214844 133.980469 136.789062 139.054688 142.289062 145.46875 C 145.789062 149.550781 148.449219 154.179688 149.367188 159.402344 C 149.839844 162.085938 150.476562 165.390625 150 168.34375 C 149.761719 169.800781 149.234375 171.175781 148.03125 172.171875 C 146.472656 173.46875 144.398438 173.546875 142.367188 173.222656 C 139.847656 172.816406 137.351562 171.710938 135.488281 170.554688 C 130.484375 167.449219 126.921875 163.585938 124.082031 159.253906 C 119.527344 152.300781 116.757812 144.179688 113.125 135.886719 Z M 108.464844 116.25 L 108.710938 116.371094 L 109.996094 116.953125 C 115.664062 119.375 123.632812 121.023438 131.644531 121.886719 C 142.285156 123.03125 153.046875 122.777344 158.734375 120.558594 C 164.363281 118.367188 169.21875 113.828125 171.300781 108.558594 C 173.226562 103.675781 172.558594 98.152344 167.621094 93.527344 C 162.496094 88.71875 156.3125 88.886719 150.054688 90.878906 C 139.503906 94.246094 128.730469 102.582031 120.871094 106.402344 C 119.597656 107.023438 118.34375 107.777344 117.117188 108.601562 C 115.179688 109.902344 113.320312 111.371094 111.605469 112.785156 C 110.902344 113.363281 110.042969 113.996094 109.226562 114.671875 C 108.9375 115.101562 108.644531 115.53125 108.328125 115.929688 L 108.179688 116.109375 Z M 98.921875 123.105469 C 91.4375 130.851562 80.601562 139.460938 73.09375 148.394531 C 68.9375 153.339844 65.804688 158.339844 65.335938 163.398438 C 64.882812 168.300781 64.957031 173.265625 66.65625 177.292969 C 68.171875 180.898438 71.113281 183.621094 76.226562 184.707031 C 78.472656 185.183594 80.652344 184.628906 82.683594 183.675781 C 85.054688 182.5625 87.226562 180.890625 89.085938 179.273438 C 93.875 175.117188 97.207031 168.972656 99.375 162.371094 C 101.605469 155.589844 102.59375 148.3125 102.535156 142.039062 C 102.507812 138.949219 102.546875 135.984375 102.382812 133.003906 C 102.28125 131.121094 102.097656 129.234375 101.757812 127.304688 L 101.078125 122.585938 C 100.96875 122.355469 100.867188 122.121094 100.765625 121.886719 L 100.496094 122.066406 C 99.972656 122.414062 99.449219 122.761719 98.921875 123.105469 Z M 106.226562 107.109375 L 104.945312 104.40625 C 104.726562 103.777344 104.542969 103.144531 104.523438 102.492188 L 103.644531 84.070312 C 103.597656 82.078125 103.6875 80.140625 103.863281 78.207031 C 104.042969 76.203125 104.3125 74.210938 104.617188 72.175781 C 105.84375 63.925781 109.199219 49.390625 116.003906 40.402344 C 120.058594 35.039062 125.457031 31.804688 132.671875 34.570312 C 135.058594 35.488281 136.386719 37.265625 137.242188 39.324219 C 138.34375 41.976562 138.75 45.050781 139.160156 47.917969 C 140.148438 54.839844 138.59375 61.308594 135.777344 67.378906 C 131.289062 77.050781 123.664062 85.734375 117.179688 93.628906 C 114.722656 96.617188 112.460938 100.179688 109.910156 103.292969 C 108.917969 104.5 107.882812 105.636719 106.757812 106.613281 C 106.574219 106.769531 106.398438 106.9375 106.226562 107.109375 Z M 95.316406 115.558594 C 93.109375 117.035156 90.84375 118.484375 88.539062 119.863281 C 86.0625 121.351562 83.542969 122.761719 81 124.050781 C 77.839844 125.65625 74.738281 127.851562 71.523438 129.625 C 70.335938 130.277344 69.132812 130.871094 67.898438 131.3125 C 60.222656 134.070312 46.214844 134.5 35.953125 130.625 C 29.652344 128.246094 24.707031 124.203125 24.863281 117.367188 C 24.988281 112.019531 29.367188 109.589844 34.578125 108.1875 C 44.058594 105.632812 56.605469 106.75 62.496094 107.292969 C 64.453125 107.472656 66.308594 107.710938 68.144531 108.058594 C 69.941406 108.394531 71.71875 108.835938 73.5625 109.421875 L 90.773438 114.550781 Z M 98.152344 107.546875 L 98.191406 107.644531 C 97.484375 107.390625 96.898438 107.1875 96.648438 107.082031 C 94.949219 106.363281 93.273438 105.546875 91.613281 104.679688 C 89.042969 103.339844 86.515625 101.878906 84.027344 100.453125 C 82.585938 99.625 81.1875 98.726562 79.8125 97.792969 C 77.644531 96.320312 75.53125 94.765625 73.386719 93.265625 C 66.96875 88.765625 55.449219 78.433594 50.339844 67.613281 C 47.328125 61.234375 46.601562 54.632812 52.054688 49.429688 C 54.117188 47.457031 56.589844 47.464844 58.964844 48.179688 C 62.152344 49.140625 65.214844 51.261719 67.613281 53.148438 C 72.390625 56.910156 76.035156 61.996094 79.140625 67.542969 C 84.085938 76.363281 87.691406 86.332031 91.851562 94.613281 L 97.457031 106.085938 Z M 98.152344 107.546875 " fill-opacity="1" fill-rule="evenodd"/></g></g></g><g clip-path="url(#c5c19695c3)"><g clip-path="url(#854f1aef33)"><g clip-path="url(#69300847f5)"><path fill="#e1ad37" d="M 259.699219 44.683594 C 260 45.519531 257.335938 47.199219 256.792969 47.59375 C 253.035156 50.324219 249.070312 52.976562 245.066406 55.242188 C 241.65625 57.171875 238.289062 60.035156 234.699219 61.542969 C 223.867188 66.089844 198.308594 65.800781 199.542969 49.742188 C 200.582031 36.253906 223.464844 36.933594 231.261719 37.257812 C 234.339844 37.386719 237.070312 37.730469 239.988281 38.550781 C 244.089844 39.707031 248.300781 40.710938 252.464844 41.789062 C 253.769531 42.128906 255.398438 42.035156 256.597656 42.621094 C 257.234375 42.929688 258.988281 43.8125 258.675781 43.160156 C 258.421875 42.632812 255.390625 41.832031 254.84375 41.617188 C 251.609375 40.339844 248.5 38.574219 245.46875 36.875 C 242.734375 35.34375 240.234375 33.429688 237.675781 31.632812 C 229.492188 25.886719 210.6875 7.011719 223.632812 -5.855469 C 228.601562 -10.792969 234.828125 -7.121094 238.726562 -4.003906 C 247.789062 3.246094 251.046875 17.445312 255.652344 27.914062 C 256.910156 30.765625 257.953125 33.660156 259.289062 36.453125 C 259.941406 37.820312 260.398438 39.339844 261.039062 40.675781 C 261.195312 41.003906 261.289062 41.773438 261.289062 41.773438 C 261.289062 41.773438 260.890625 41.109375 260.792969 40.730469 C 260.320312 38.949219 259.34375 37.125 259.390625 35.144531 C 259.496094 30.554688 259.367188 25.679688 259.515625 20.957031 C 259.621094 17.675781 260.148438 14.535156 260.792969 11.265625 C 263.050781 -0.253906 271.15625 -26.8125 286.917969 -21.265625 C 291.847656 -19.527344 292.328125 -13.980469 292.730469 -9.121094 C 293.941406 5.398438 282.667969 18.257812 273.832031 29.171875 C 271.03125 32.628906 268.484375 36.984375 265.238281 39.941406 C 263.894531 41.171875 263.027344 43.070312 261.71875 44.375 C 261.578125 44.515625 261.253906 44.742188 261.253906 44.742188 L 261.796875 43.96875 C 262.679688 42.710938 264.304688 41.523438 265.433594 40.539062 C 267.769531 38.507812 270.421875 36.335938 273.101562 34.875 C 283.414062 29.25 300.660156 13.191406 311.113281 23.355469 C 319.757812 31.761719 312.207031 44.527344 302.34375 48.96875 C 293.324219 53.027344 269.066406 52.066406 260.9375 46.359375 C 260.527344 46.070312 261.714844 47.019531 262.171875 47.226562 C 263.234375 47.710938 264.394531 48.203125 265.488281 48.632812 C 268.960938 50.003906 272.324219 51.414062 275.597656 53.203125 C 284.117188 57.863281 294.152344 65.355469 295.421875 76.332031 C 295.863281 80.179688 296.46875 85.523438 292.933594 88.628906 C 289.40625 91.722656 284.03125 90.15625 280.910156 88.242188 C 271.164062 82.269531 268.917969 71.972656 264.941406 61.375 C 263.703125 58.066406 262.976562 54.632812 261.761719 51.3125 C 261.621094 50.929688 259.980469 47.71875 260.503906 46.976562 C 261.019531 46.246094 260.941406 48.585938 261.039062 49.425781 C 261.199219 50.796875 261.234375 52.207031 261.394531 53.585938 C 261.847656 57.523438 261.546875 61.285156 261.363281 65.304688 C 260.894531 75.46875 256.988281 89.070312 248.941406 96.40625 C 245.730469 99.335938 241.460938 102.460938 237.203125 101.746094 C 227.96875 100.191406 227.199219 91.742188 228.394531 83.355469 C 230.300781 69.992188 252.058594 55.5625 259.699219 44.683594 Z M 259.699219 44.683594 " fill-opacity="1" fill-rule="evenodd"/></g></g></g><g clip-path="url(#c68d5d3482)"><g clip-path="url(#1c4eae40c2)"><g clip-path="url(#a9e4e380fd)"><path fill="#e1ad37" d="M 233.519531 33.402344 C 232.835938 33.347656 232.140625 33.304688 231.429688 33.273438 C 225.574219 33.023438 211.910156 32.777344 203.660156 37.382812 C 199.078125 39.9375 195.953125 43.8125 195.511719 49.433594 C 194.820312 58.304688 200.125 63.695312 207.839844 66.308594 C 216.398438 69.210938 228.105469 68.34375 235.234375 65.734375 C 234.480469 66.570312 233.75 67.40625 233.054688 68.246094 C 229.007812 73.125 226.09375 78.117188 225.402344 82.929688 C 224.578125 88.628906 224.734375 94.339844 227.066406 98.425781 C 228.863281 101.574219 231.851562 103.9375 236.695312 104.761719 C 239.03125 105.15625 241.375 104.734375 243.617188 103.769531 C 246.328125 102.605469 248.886719 100.617188 251.015625 98.679688 C 255.363281 94.726562 258.640625 89.117188 260.863281 83.097656 C 262.617188 78.347656 263.71875 73.351562 264.21875 68.777344 C 265.726562 73.03125 267.25 77.105469 269.378906 80.742188 C 271.734375 84.757812 274.792969 88.265625 279.222656 90.988281 C 281.589844 92.445312 285.007812 93.695312 288.300781 93.609375 C 290.730469 93.546875 293.09375 92.792969 295.070312 91.0625 C 297.011719 89.363281 298.101562 87.195312 298.621094 84.839844 C 299.273438 81.886719 298.960938 78.609375 298.65625 75.960938 C 298.089844 70.984375 295.976562 66.617188 292.988281 62.84375 C 290.554688 59.765625 287.527344 57.089844 284.351562 54.796875 C 292.066406 54.925781 299.476562 53.96875 303.738281 52.058594 C 310.507812 49.023438 316.273438 42.554688 317.863281 35.800781 C 319.078125 30.640625 318.03125 25.300781 313.507812 20.890625 C 309.191406 16.683594 303.988281 15.886719 298.4375 17.136719 C 292.820312 18.398438 286.785156 22.039062 281.304688 25.585938 C 285.347656 20.527344 289.375 15.109375 292.222656 9.367188 C 295.167969 3.429688 296.871094 -2.847656 296.335938 -9.421875 C 296.0625 -12.734375 295.667969 -16.300781 294.300781 -19.101562 C 293.070312 -21.621094 291.144531 -23.621094 288.125 -24.691406 C 279.816406 -27.628906 273.058594 -23.78125 267.972656 -16.855469 C 262.074219 -8.828125 258.546875 3.511719 257.15625 10.550781 C 256.753906 12.597656 256.394531 14.59375 256.144531 16.601562 C 256.066406 17.210938 256.003906 17.820312 255.949219 18.433594 C 253.917969 13.027344 251.816406 7.367188 248.960938 2.46875 C 246.820312 -1.199219 244.269531 -4.457031 241.113281 -6.988281 C 238.160156 -9.355469 234.042969 -11.832031 229.941406 -12.082031 C 226.867188 -12.273438 223.75 -11.386719 220.921875 -8.582031 C 214.585938 -2.304688 214.21875 5.113281 216.875 12.269531 C 220.066406 20.871094 228.011719 29.035156 233.519531 33.402344 Z M 265.339844 52.148438 C 266.667969 52.675781 267.976562 53.21875 269.273438 53.789062 C 270.875 54.496094 272.457031 55.253906 274.011719 56.101562 C 278.800781 58.714844 284.136719 62.25 287.851562 66.917969 C 290.097656 69.738281 291.746094 72.980469 292.183594 76.707031 C 292.382812 78.4375 292.652344 80.507812 292.429688 82.488281 C 292.273438 83.863281 291.898438 85.222656 290.792969 86.191406 C 289.785156 87.082031 288.492188 87.234375 287.242188 87.113281 C 285.519531 86.949219 283.832031 86.25 282.59375 85.496094 C 279.128906 83.375 276.75 80.625 274.902344 77.496094 C 271.902344 72.40625 270.21875 66.378906 267.917969 60.257812 Z M 265.65625 45.097656 L 267.742188 43.191406 C 269.058594 42.042969 270.476562 40.84375 271.949219 39.773438 C 272.875 39.09375 273.824219 38.46875 274.777344 37.945312 C 280.601562 34.757812 288.652344 28.148438 296.421875 25.015625 C 300.910156 23.207031 305.296875 22.503906 308.714844 25.820312 C 311.984375 28.988281 312.019531 33.019531 310.390625 36.625 C 308.617188 40.554688 305.011719 44.042969 300.953125 45.875 C 296.796875 47.753906 289.128906 48.367188 281.558594 47.976562 C 275.832031 47.675781 270.136719 46.828125 266.101562 45.285156 Z M 256.640625 52.78125 L 257.773438 51.988281 L 258.082031 51.765625 L 258.273438 53.949219 C 258.441406 55.402344 258.5 56.832031 258.496094 58.261719 C 258.492188 60.53125 258.34375 62.800781 258.238281 65.160156 C 258.023438 69.992188 256.984375 75.644531 255.042969 80.957031 C 253.183594 86.027344 250.515625 90.800781 246.867188 94.136719 C 245.476562 95.40625 243.871094 96.734375 242.144531 97.671875 C 240.722656 98.441406 239.226562 98.984375 237.707031 98.730469 C 234.324219 98.164062 232.492188 96.347656 231.667969 93.851562 C 230.710938 90.949219 230.882812 87.359375 231.386719 83.785156 C 231.933594 79.917969 234.445312 76 237.683594 72.070312 C 243.21875 65.355469 250.878906 58.738281 256.640625 52.78125 Z M 263.46875 36.75 L 263.304688 36.359375 C 263.203125 35.992188 263.117188 35.617188 263.125 35.230469 L 263.230469 21.074219 C 263.277344 19.5625 263.421875 18.082031 263.628906 16.605469 C 263.84375 15.070312 264.121094 13.539062 264.425781 11.976562 C 265.644531 5.695312 268.644531 -5.355469 273.882812 -12.53125 C 276.917969 -16.691406 280.722656 -19.582031 285.710938 -17.835938 C 287.078125 -17.355469 287.730469 -16.257812 288.152344 -15.015625 C 288.800781 -13.113281 288.957031 -10.894531 289.132812 -8.820312 C 289.578125 -3.566406 288.128906 1.433594 285.789062 6.1875 C 282.070312 13.734375 276.140625 20.65625 271.070312 26.9375 C 269.128906 29.339844 267.3125 32.179688 265.292969 34.683594 C 264.707031 35.410156 264.101562 36.109375 263.46875 36.75 Z M 252.253906 45.746094 C 251.109375 46.558594 249.945312 47.351562 248.769531 48.128906 C 246.878906 49.371094 244.964844 50.558594 243.035156 51.652344 C 240.628906 53.023438 238.242188 54.839844 235.785156 56.34375 C 234.90625 56.882812 234.019531 57.375 233.109375 57.757812 C 227.554688 60.101562 217.617188 61.011719 210.441406 58.601562 C 206.390625 57.242188 203.222656 54.707031 203.574219 50.050781 C 203.855469 46.308594 206.859375 44.40625 210.367188 43.175781 C 217.402344 40.707031 226.757812 41.066406 231.097656 41.242188 C 232.492188 41.296875 233.804688 41.402344 235.105469 41.582031 C 236.371094 41.761719 237.617188 42.015625 238.910156 42.378906 L 251.472656 45.621094 Z M 255.757812 37.738281 C 254.753906 37.324219 253.761719 36.859375 252.78125 36.367188 C 250.949219 35.449219 249.15625 34.4375 247.386719 33.449219 C 246.386719 32.894531 245.425781 32.28125 244.480469 31.640625 C 242.941406 30.601562 241.441406 29.496094 239.921875 28.429688 C 235.375 25.246094 227.171875 17.6875 224.132812 9.566406 C 222.507812 5.230469 222.511719 0.691406 226.34375 -3.128906 C 227.636719 -4.414062 229.09375 -4.601562 230.484375 -4.269531 C 232.679688 -3.75 234.738281 -2.296875 236.339844 -1.019531 C 239.621094 1.597656 242 5.273438 244 9.296875 C 247.25 15.839844 249.488281 23.285156 252.203125 29.433594 Z M 255.757812 37.738281 " fill-opacity="1" fill-rule="evenodd"/></g></g></g><g clip-path="url(#76bed22da7)"><g clip-path="url(#c464a98774)"><g clip-path="url(#f09c77b9e7)"><path fill="#ae7b37" d="M 105.707031 102.101562 C 106.441406 102.613281 107.117188 103.191406 107.742188 103.824219 C 108.367188 104.460938 108.929688 105.144531 109.421875 105.875 C 109.917969 106.609375 110.339844 107.375 110.683594 108.175781 C 111.03125 108.980469 111.292969 109.800781 111.476562 110.640625 C 111.660156 111.476562 111.757812 112.320312 111.769531 113.167969 C 111.785156 114.011719 111.710938 114.84375 111.554688 115.664062 C 111.398438 116.480469 111.160156 117.269531 110.835938 118.03125 C 110.515625 118.792969 110.121094 119.507812 109.648438 120.183594 C 109.171875 120.855469 108.632812 121.472656 108.027344 122.035156 C 107.421875 122.59375 106.757812 123.085938 106.042969 123.511719 C 105.324219 123.9375 104.566406 124.289062 103.765625 124.5625 C 102.96875 124.835938 102.140625 125.03125 101.289062 125.144531 C 100.4375 125.257812 99.578125 125.285156 98.707031 125.234375 C 97.835938 125.179688 96.96875 125.042969 96.113281 124.828125 C 95.257812 124.609375 94.421875 124.316406 93.613281 123.941406 C 92.804688 123.570312 92.03125 123.128906 91.300781 122.613281 C 90.570312 122.101562 89.890625 121.523438 89.265625 120.890625 C 88.640625 120.253906 88.082031 119.570312 87.585938 118.839844 C 87.089844 118.105469 86.671875 117.339844 86.324219 116.539062 C 85.980469 115.734375 85.714844 114.914062 85.53125 114.074219 C 85.347656 113.238281 85.25 112.394531 85.238281 111.546875 C 85.226562 110.703125 85.296875 109.871094 85.453125 109.050781 C 85.609375 108.234375 85.851562 107.445312 86.171875 106.683594 C 86.492188 105.921875 86.890625 105.207031 87.363281 104.53125 C 87.835938 103.859375 88.375 103.242188 88.980469 102.679688 C 89.589844 102.121094 90.25 101.628906 90.96875 101.203125 C 91.683594 100.777344 92.441406 100.425781 93.242188 100.152344 C 94.042969 99.878906 94.867188 99.683594 95.71875 99.570312 C 96.570312 99.457031 97.433594 99.429688 98.304688 99.480469 C 99.175781 99.535156 100.039062 99.671875 100.894531 99.886719 C 101.753906 100.105469 102.585938 100.398438 103.394531 100.773438 C 104.207031 101.144531 104.976562 101.585938 105.707031 102.101562 Z M 105.707031 102.101562 " fill-opacity="1" fill-rule="nonzero"/></g></g></g><g clip-path="url(#ec164e7240)"><g clip-path="url(#95bdd35118)"><g clip-path="url(#53a22e928d)"><path fill="#ae7b37" d="M 84.949219 102.835938 C 82.34375 106.429688 81.640625 110.859375 82.578125 115.0625 C 83.453125 118.960938 85.808594 122.648438 89.433594 125.273438 C 93.089844 127.921875 97.386719 128.941406 101.398438 128.554688 C 105.8125 128.125 109.871094 125.925781 112.550781 122.222656 C 115.257812 118.488281 115.992188 113.882812 115.011719 109.515625 C 114.109375 105.480469 111.667969 101.667969 107.921875 98.949219 C 104.140625 96.210938 99.695312 95.164062 95.542969 95.566406 C 90.960938 96.011719 86.753906 98.304688 83.96875 102.148438 Z M 90.757812 106.917969 C 92.085938 104.96875 94.164062 103.804688 96.433594 103.515625 C 98.777344 103.21875 101.308594 103.761719 103.496094 105.25 C 105.714844 106.761719 107.222656 108.914062 107.816406 111.238281 C 108.414062 113.578125 108.144531 116.082031 106.742188 118.140625 C 105.316406 120.238281 103.082031 121.484375 100.644531 121.792969 C 98.160156 122.109375 95.484375 121.53125 93.167969 119.953125 C 90.824219 118.355469 89.238281 116.074219 88.613281 113.617188 C 87.972656 111.109375 88.277344 108.433594 89.777344 106.226562 Z M 90.757812 106.917969 " fill-opacity="1" fill-rule="evenodd"/></g></g></g></svg>