<svg xmlns="http://www.w3.org/2000/svg" xmlns:xlink="http://www.w3.org/1999/xlink" width="500" zoomAndPan="magnify" viewBox="0 0 375 374.999991" height="500" preserveAspectRatio="xMidYMid meet" version="1.0"><defs><filter x="0%" y="0%" width="100%" height="100%" id="6fa2ded0f2"><feColorMatrix values="0 0 0 0 1 0 0 0 0 1 0 0 0 0 1 0 0 0 1 0" color-interpolation-filters="sRGB"/></filter><g/><mask id="f9bf557f36"><g filter="url(#6fa2ded0f2)"><rect x="-37.5" width="450" fill="#000000" y="-37.499999" height="449.999989" fill-opacity="0.7"/></g></mask><clipPath id="7cbd0d2443"><rect x="0" width="114" y="0" height="93"/></clipPath><clipPath id="c055878c18"><path d="M 228.011719 141.269531 L 259 141.269531 L 259 173.519531 L 228.011719 173.519531 Z M 228.011719 141.269531 " clip-rule="nonzero"/></clipPath><clipPath id="7efab0977e"><path d="M 250 141.269531 L 259.511719 141.269531 L 259.511719 143 L 250 143 Z M 250 141.269531 " clip-rule="nonzero"/></clipPath><clipPath id="fe3c7fe5ad"><path d="M 249 141.269531 L 259.511719 141.269531 L 259.511719 144 L 249 144 Z M 249 141.269531 " clip-rule="nonzero"/></clipPath><clipPath id="70d9ac64c9"><path d="M 216 131 L 237 131 L 237 152 L 216 152 Z M 216 131 " clip-rule="nonzero"/></clipPath><clipPath id="c588bae4aa"><path d="M 211.722656 144.105469 L 224.222656 126.304688 L 242.023438 138.808594 L 229.523438 156.605469 Z M 211.722656 144.105469 " clip-rule="nonzero"/></clipPath><clipPath id="f4be6221b4"><path d="M 211.722656 144.105469 L 233.707031 112.804688 L 258.257812 130.046875 L 236.273438 161.347656 Z M 211.722656 144.105469 " clip-rule="nonzero"/></clipPath><clipPath id="739c00f7b7"><path d="M 215 130 L 237 130 L 237 152 L 215 152 Z M 215 130 " clip-rule="nonzero"/></clipPath><clipPath id="e733695b48"><path d="M 211.722656 144.105469 L 224.222656 126.304688 L 242.023438 138.808594 L 229.523438 156.605469 Z M 211.722656 144.105469 " clip-rule="nonzero"/></clipPath><clipPath id="ebaf310e9e"><path d="M 211.722656 144.105469 L 233.707031 112.804688 L 258.257812 130.046875 L 236.273438 161.347656 Z M 211.722656 144.105469 " clip-rule="nonzero"/></clipPath><clipPath id="c04591fe68"><path d="M 239 126 L 243 126 L 243 141 L 239 141 Z M 239 126 " clip-rule="nonzero"/></clipPath><clipPath id="567af9f7ea"><path d="M 211.722656 144.105469 L 224.222656 126.304688 L 242.023438 138.808594 L 229.523438 156.605469 Z M 211.722656 144.105469 " clip-rule="nonzero"/></clipPath><clipPath id="747c9caa88"><path d="M 211.722656 144.105469 L 233.707031 112.804688 L 258.257812 130.046875 L 236.273438 161.347656 Z M 211.722656 144.105469 " clip-rule="nonzero"/></clipPath><clipPath id="73f1547da0"><path d="M 238 126 L 243 126 L 243 141 L 238 141 Z M 238 126 " clip-rule="nonzero"/></clipPath><clipPath id="f940f5882f"><path d="M 211.722656 144.105469 L 224.222656 126.304688 L 242.023438 138.808594 L 229.523438 156.605469 Z M 211.722656 144.105469 " clip-rule="nonzero"/></clipPath><clipPath id="86fe4c8bdd"><path d="M 211.722656 144.105469 L 233.707031 112.804688 L 258.257812 130.046875 L 236.273438 161.347656 Z M 211.722656 144.105469 " clip-rule="nonzero"/></clipPath><clipPath id="0d0385711f"><path d="M 224 140 L 229 140 L 229 144 L 224 144 Z M 224 140 " clip-rule="nonzero"/></clipPath><clipPath id="f679622bbd"><path d="M 211.722656 144.105469 L 224.222656 126.304688 L 242.023438 138.808594 L 229.523438 156.605469 Z M 211.722656 144.105469 " clip-rule="nonzero"/></clipPath><clipPath id="0daf7f6f62"><path d="M 211.722656 144.105469 L 233.707031 112.804688 L 258.257812 130.046875 L 236.273438 161.347656 Z M 211.722656 144.105469 " clip-rule="nonzero"/></clipPath><clipPath id="8697544459"><path d="M 224 139 L 229 139 L 229 145 L 224 145 Z M 224 139 " clip-rule="nonzero"/></clipPath><clipPath id="c66e11e91d"><path d="M 211.722656 144.105469 L 224.222656 126.304688 L 242.023438 138.808594 L 229.523438 156.605469 Z M 211.722656 144.105469 " clip-rule="nonzero"/></clipPath><clipPath id="542ae4fcb5"><path d="M 211.722656 144.105469 L 233.707031 112.804688 L 258.257812 130.046875 L 236.273438 161.347656 Z M 211.722656 144.105469 " clip-rule="nonzero"/></clipPath></defs><g fill="#ae7b37" fill-opacity="1"><g transform="translate(168.318488, 247.295614)"><g><path d="M 27.71875 -32.28125 C 21.984375 -27.6875 15.71875 -24.0625 9.9375 -19.703125 C 7.25 -24.53125 3.84375 -28.859375 1.3125 -33.796875 C -0.203125 -36.75 -2.109375 -40.6875 -0.75 -44.09375 C 1.640625 -49.578125 12.484375 -50.1875 14.390625 -43.859375 C 15 -41.5 18.90625 -42.03125 18.203125 -44.46875 C 15.28125 -54.71875 -1.6875 -54.953125 -4.734375 -44.5625 C -7.5625 -34.84375 2.546875 -25.046875 6.75 -17.125 C 5.125 -15.8125 3.515625 -14.359375 2.109375 -12.78125 C -3.15625 -7.3125 -8.875 5.875 3.078125 8.203125 C 8.265625 9.21875 13.453125 4.796875 14.65625 -0.109375 C 15.984375 -5.359375 14.109375 -11.109375 11.796875 -16.09375 C 17.765625 -20.640625 24.359375 -24.40625 30.28125 -29.1875 C 32.34375 -30.796875 29.78125 -33.890625 27.71875 -32.28125 Z M 10.78125 -6.4375 C 11.234375 -3.640625 11.21875 -1.234375 9.609375 1.171875 C 7.609375 4.0625 3.484375 5.828125 0.859375 2.328125 C -2.484375 -2.15625 2.734375 -7.859375 5.84375 -10.90625 C 6.65625 -11.765625 7.625 -12.625 8.5625 -13.40625 C 9.546875 -11.171875 10.390625 -8.84375 10.78125 -6.4375 Z M 10.78125 -6.4375 "/></g></g></g><g fill="#ae7b37" fill-opacity="1"><g transform="translate(198.587188, 242.458984)"><g><path d="M 18.390625 -26.71875 C 16.109375 -22.53125 14.53125 -17.875 11.734375 -14 C 10.40625 -12.28125 7.5 -8.53125 4.953125 -8.9375 C 0.5625 -9.4375 1.328125 -18.171875 1.4375 -20.984375 C 1.75 -27.484375 2.609375 -34.078125 3.640625 -40.640625 C 7.78125 -41.296875 11.890625 -41.875 15.9375 -42.53125 C 18.515625 -42.9375 17.90625 -46.828125 15.3125 -46.5 C 11.65625 -45.90625 8 -45.328125 4.328125 -44.828125 C 5.234375 -50.15625 6.21875 -55.484375 7.140625 -60.75 C 7.53125 -63.28125 3.546875 -63.6875 3.15625 -61.15625 C 2.21875 -55.5 1.375 -49.859375 0.515625 -44.21875 C -1.421875 -43.90625 -3.296875 -43.609375 -5.15625 -43.3125 C -7.71875 -42.890625 -7.078125 -38.921875 -4.515625 -39.34375 C -3.046875 -39.578125 -1.5625 -39.8125 -0.09375 -40.046875 C -0.625 -36.453125 -1.1875 -32.9375 -1.640625 -29.34375 C -2.515625 -23.21875 -4.671875 -11.703125 -0.25 -6.515625 C 3.015625 -2.546875 9.453125 -5.828125 12.421875 -8.625 C 17.140625 -13.046875 19.1875 -19.671875 22.125 -25.328125 C 23.28125 -27.578125 19.546875 -28.984375 18.390625 -26.71875 Z M 18.390625 -26.71875 "/></g></g></g><g fill="#ae7b37" fill-opacity="1"><g transform="translate(219.674121, 239.089507)"><g><path d="M 24.40625 -25.03125 C 23.609375 -23.078125 19.453125 -15.640625 16.21875 -16.3125 C 13.140625 -17.09375 14.921875 -24.484375 16.4375 -29.4375 C 16.671875 -30.03125 16.828125 -30.609375 17.046875 -31.203125 C 17.421875 -32.3125 17.765625 -33.15625 17.953125 -33.59375 C 18.828125 -35.96875 15.15625 -37.375 14.203125 -34.984375 C 14.140625 -34.828125 14.03125 -34.625 13.96875 -34.390625 C 13.84375 -34.203125 13.796875 -33.96875 13.6875 -33.703125 C 13.15625 -32.09375 12.359375 -29.984375 11.703125 -27.65625 C 10.140625 -22.84375 8.296875 -18 4.765625 -15.140625 C -0.25 -11.046875 -0.203125 -17.765625 0.46875 -21.046875 C 1.265625 -24.546875 2.640625 -27.875 3.546875 -31.296875 C 4.1875 -33.703125 0.515625 -35.1875 -0.109375 -32.703125 C -1.515625 -27.53125 -9.265625 -10.015625 1.859375 -9.859375 C 5.84375 -9.875 8.765625 -12.484375 10.984375 -16.125 C 11.5625 -14.453125 12.65625 -13.1875 14.421875 -12.609375 C 20.5 -10.53125 26.234375 -19.109375 28.140625 -23.640625 C 29.046875 -26.03125 25.375 -27.4375 24.40625 -25.03125 Z M 24.40625 -25.03125 "/></g></g></g><g fill="#ae7b37" fill-opacity="1"><g transform="translate(247.37505, 234.66318)"><g><path d="M 24.21875 -61.171875 C 24.703125 -63.640625 20.796875 -64.0625 20.234375 -61.5625 C 18.515625 -52.4375 16.40625 -43.234375 14.765625 -33.953125 C 6.328125 -38.34375 -1.421875 -30.890625 -2.890625 -22.515625 C -3.9375 -16.59375 -0.0625 -7.890625 7.328125 -11.140625 C 9.40625 -12.046875 11.125 -13.75 12.53125 -15.96875 C 12.34375 -12.734375 12.28125 -9.46875 12.390625 -6.296875 C 12.5 -3.671875 16.4375 -4.390625 16.359375 -6.921875 C 16 -15.734375 17.078125 -24.4375 18.640625 -33.140625 C 20.921875 -42.359375 22.375 -51.78125 24.21875 -61.171875 Z M 1.765625 -15.921875 C -0.546875 -18.828125 1.203125 -23.96875 2.828125 -26.703125 C 5.296875 -30.84375 9.078125 -32.640625 13.640625 -30.515625 C 13.71875 -30.4375 13.71875 -30.4375 13.796875 -30.453125 C 13.15625 -28.03125 12.34375 -25.671875 11.421875 -23.375 C 10.21875 -20.375 6.03125 -10.6875 1.765625 -15.921875 Z M 1.765625 -15.921875 "/></g></g></g><g fill="#ae7b37" fill-opacity="1"><g transform="translate(272.741629, 230.609859)"><g><path d="M 11.328125 -25.984375 C 9.578125 -22.5 7.625 -18.765625 4.703125 -15.984375 C 2.828125 -14.25 1.171875 -13.65625 0.90625 -16.75 C 0.59375 -21.734375 2.578125 -26.890625 3.640625 -31.703125 C 4.171875 -34.25 0.203125 -34.671875 -0.34375 -32.171875 C -1.1875 -28.359375 -2.328125 -24.59375 -2.828125 -20.6875 C -3.15625 -17.78125 -3.578125 -13.875 -1.15625 -11.703125 C 5.484375 -5.59375 13.09375 -20.4375 15.0625 -24.578125 C 16.203125 -26.921875 12.546875 -28.25 11.328125 -25.984375 Z M 2.890625 -38.859375 C 2.890625 -38.859375 2.96875 -38.875 3.046875 -38.875 C 4.046875 -39.1875 4.9375 -40.046875 4.671875 -41.203125 C 4.5 -42.203125 3.484375 -43.171875 2.40625 -42.90625 C 2.328125 -42.90625 2.25 -42.890625 2.265625 -42.8125 C 1.171875 -42.5625 0.296875 -41.6875 0.546875 -40.546875 C 0.78125 -39.546875 1.734375 -38.59375 2.890625 -38.859375 Z M 2.890625 -38.859375 "/></g></g></g><g fill="#ae7b37" fill-opacity="1"><g transform="translate(287.136773, 228.309662)"><g><path d="M 25.1875 -26.203125 C 23.890625 -24.25 21.28125 -23.671875 18.53125 -23.859375 C 19.21875 -28.03125 17.734375 -31.8125 14 -34.234375 C 13.359375 -34.703125 12.6875 -34.984375 12.109375 -35.140625 C 2.140625 -39.59375 -5.171875 -24.3125 -2.171875 -16.09375 C -0.40625 -11.03125 4.5625 -8.3125 9.6875 -10.8125 C 13.015625 -12.390625 15.734375 -15.984375 17.296875 -19.609375 C 21.59375 -19.09375 26.109375 -20.375 28.421875 -23.84375 C 29.828125 -25.984375 26.59375 -28.34375 25.1875 -26.203125 Z M 10.15625 -30.265625 C 12.390625 -33.34375 14.828125 -27.015625 14.84375 -25.90625 C 14.828125 -25.515625 14.8125 -25.109375 14.71875 -24.6875 C 11.265625 -25.90625 8.6875 -28.109375 10.15625 -30.265625 Z M 13.203125 -20.3125 C 12.265625 -18.5625 10.875 -16.25 9.21875 -15.1875 C 4.25 -11.84375 0.890625 -16.90625 1 -21.21875 C 1.109375 -24.515625 3.171875 -29.640625 6.375 -31.5 C 6.375 -31.5 6.390625 -31.421875 6.390625 -31.421875 C 5.3125 -26.15625 8.734375 -22.296875 13.3125 -20.5625 C 13.25 -20.46875 13.265625 -20.40625 13.203125 -20.3125 Z M 13.203125 -20.3125 "/></g></g></g><g fill="#e1ad37" fill-opacity="1"><g transform="translate(165.765618, 245.446188)"><g><path d="M 27.71875 -32.28125 C 21.984375 -27.6875 15.71875 -24.0625 9.9375 -19.703125 C 7.25 -24.53125 3.84375 -28.859375 1.3125 -33.796875 C -0.203125 -36.75 -2.109375 -40.6875 -0.75 -44.09375 C 1.640625 -49.578125 12.484375 -50.1875 14.390625 -43.859375 C 15 -41.5 18.90625 -42.03125 18.203125 -44.46875 C 15.28125 -54.71875 -1.6875 -54.953125 -4.734375 -44.5625 C -7.5625 -34.84375 2.546875 -25.046875 6.75 -17.125 C 5.125 -15.8125 3.515625 -14.359375 2.109375 -12.78125 C -3.15625 -7.3125 -8.875 5.875 3.078125 8.203125 C 8.265625 9.21875 13.453125 4.796875 14.65625 -0.109375 C 15.984375 -5.359375 14.109375 -11.109375 11.796875 -16.09375 C 17.765625 -20.640625 24.359375 -24.40625 30.28125 -29.1875 C 32.34375 -30.796875 29.78125 -33.890625 27.71875 -32.28125 Z M 10.78125 -6.4375 C 11.234375 -3.640625 11.21875 -1.234375 9.609375 1.171875 C 7.609375 4.0625 3.484375 5.828125 0.859375 2.328125 C -2.484375 -2.15625 2.734375 -7.859375 5.84375 -10.90625 C 6.65625 -11.765625 7.625 -12.625 8.5625 -13.40625 C 9.546875 -11.171875 10.390625 -8.84375 10.78125 -6.4375 Z M 10.78125 -6.4375 "/></g></g></g><g fill="#e1ad37" fill-opacity="1"><g transform="translate(196.034318, 240.609558)"><g><path d="M 18.390625 -26.71875 C 16.109375 -22.53125 14.53125 -17.875 11.734375 -14 C 10.40625 -12.28125 7.5 -8.53125 4.953125 -8.9375 C 0.5625 -9.4375 1.328125 -18.171875 1.4375 -20.984375 C 1.75 -27.484375 2.609375 -34.078125 3.640625 -40.640625 C 7.78125 -41.296875 11.890625 -41.875 15.9375 -42.53125 C 18.515625 -42.9375 17.90625 -46.828125 15.3125 -46.5 C 11.65625 -45.90625 8 -45.328125 4.328125 -44.828125 C 5.234375 -50.15625 6.21875 -55.484375 7.140625 -60.75 C 7.53125 -63.28125 3.546875 -63.6875 3.15625 -61.15625 C 2.21875 -55.5 1.375 -49.859375 0.515625 -44.21875 C -1.421875 -43.90625 -3.296875 -43.609375 -5.15625 -43.3125 C -7.71875 -42.890625 -7.078125 -38.921875 -4.515625 -39.34375 C -3.046875 -39.578125 -1.5625 -39.8125 -0.09375 -40.046875 C -0.625 -36.453125 -1.1875 -32.9375 -1.640625 -29.34375 C -2.515625 -23.21875 -4.671875 -11.703125 -0.25 -6.515625 C 3.015625 -2.546875 9.453125 -5.828125 12.421875 -8.625 C 17.140625 -13.046875 19.1875 -19.671875 22.125 -25.328125 C 23.28125 -27.578125 19.546875 -28.984375 18.390625 -26.71875 Z M 18.390625 -26.71875 "/></g></g></g><g fill="#e1ad37" fill-opacity="1"><g transform="translate(217.121251, 237.240081)"><g><path d="M 24.40625 -25.03125 C 23.609375 -23.078125 19.453125 -15.640625 16.21875 -16.3125 C 13.140625 -17.09375 14.921875 -24.484375 16.4375 -29.4375 C 16.671875 -30.03125 16.828125 -30.609375 17.046875 -31.203125 C 17.421875 -32.3125 17.765625 -33.15625 17.953125 -33.59375 C 18.828125 -35.96875 15.15625 -37.375 14.203125 -34.984375 C 14.140625 -34.828125 14.03125 -34.625 13.96875 -34.390625 C 13.84375 -34.203125 13.796875 -33.96875 13.6875 -33.703125 C 13.15625 -32.09375 12.359375 -29.984375 11.703125 -27.65625 C 10.140625 -22.84375 8.296875 -18 4.765625 -15.140625 C -0.25 -11.046875 -0.203125 -17.765625 0.46875 -21.046875 C 1.265625 -24.546875 2.640625 -27.875 3.546875 -31.296875 C 4.1875 -33.703125 0.515625 -35.1875 -0.109375 -32.703125 C -1.515625 -27.53125 -9.265625 -10.015625 1.859375 -9.859375 C 5.84375 -9.875 8.765625 -12.484375 10.984375 -16.125 C 11.5625 -14.453125 12.65625 -13.1875 14.421875 -12.609375 C 20.5 -10.53125 26.234375 -19.109375 28.140625 -23.640625 C 29.046875 -26.03125 25.375 -27.4375 24.40625 -25.03125 Z M 24.40625 -25.03125 "/></g></g></g><g fill="#e1ad37" fill-opacity="1"><g transform="translate(244.822179, 232.813755)"><g><path d="M 24.21875 -61.171875 C 24.703125 -63.640625 20.796875 -64.0625 20.234375 -61.5625 C 18.515625 -52.4375 16.40625 -43.234375 14.765625 -33.953125 C 6.328125 -38.34375 -1.421875 -30.890625 -2.890625 -22.515625 C -3.9375 -16.59375 -0.0625 -7.890625 7.328125 -11.140625 C 9.40625 -12.046875 11.125 -13.75 12.53125 -15.96875 C 12.34375 -12.734375 12.28125 -9.46875 12.390625 -6.296875 C 12.5 -3.671875 16.4375 -4.390625 16.359375 -6.921875 C 16 -15.734375 17.078125 -24.4375 18.640625 -33.140625 C 20.921875 -42.359375 22.375 -51.78125 24.21875 -61.171875 Z M 1.765625 -15.921875 C -0.546875 -18.828125 1.203125 -23.96875 2.828125 -26.703125 C 5.296875 -30.84375 9.078125 -32.640625 13.640625 -30.515625 C 13.71875 -30.4375 13.71875 -30.4375 13.796875 -30.453125 C 13.15625 -28.03125 12.34375 -25.671875 11.421875 -23.375 C 10.21875 -20.375 6.03125 -10.6875 1.765625 -15.921875 Z M 1.765625 -15.921875 "/></g></g></g><g fill="#e1ad37" fill-opacity="1"><g transform="translate(270.188758, 228.760434)"><g><path d="M 11.328125 -25.984375 C 9.578125 -22.5 7.625 -18.765625 4.703125 -15.984375 C 2.828125 -14.25 1.171875 -13.65625 0.90625 -16.75 C 0.59375 -21.734375 2.578125 -26.890625 3.640625 -31.703125 C 4.171875 -34.25 0.203125 -34.671875 -0.34375 -32.171875 C -1.1875 -28.359375 -2.328125 -24.59375 -2.828125 -20.6875 C -3.15625 -17.78125 -3.578125 -13.875 -1.15625 -11.703125 C 5.484375 -5.59375 13.09375 -20.4375 15.0625 -24.578125 C 16.203125 -26.921875 12.546875 -28.25 11.328125 -25.984375 Z M 2.890625 -38.859375 C 2.890625 -38.859375 2.96875 -38.875 3.046875 -38.875 C 4.046875 -39.1875 4.9375 -40.046875 4.671875 -41.203125 C 4.5 -42.203125 3.484375 -43.171875 2.40625 -42.90625 C 2.328125 -42.90625 2.25 -42.890625 2.265625 -42.8125 C 1.171875 -42.5625 0.296875 -41.6875 0.546875 -40.546875 C 0.78125 -39.546875 1.734375 -38.59375 2.890625 -38.859375 Z M 2.890625 -38.859375 "/></g></g></g><g fill="#e1ad37" fill-opacity="1"><g transform="translate(284.583903, 226.460236)"><g><path d="M 25.1875 -26.203125 C 23.890625 -24.25 21.28125 -23.671875 18.53125 -23.859375 C 19.21875 -28.03125 17.734375 -31.8125 14 -34.234375 C 13.359375 -34.703125 12.6875 -34.984375 12.109375 -35.140625 C 2.140625 -39.59375 -5.171875 -24.3125 -2.171875 -16.09375 C -0.40625 -11.03125 4.5625 -8.3125 9.6875 -10.8125 C 13.015625 -12.390625 15.734375 -15.984375 17.296875 -19.609375 C 21.59375 -19.09375 26.109375 -20.375 28.421875 -23.84375 C 29.828125 -25.984375 26.59375 -28.34375 25.1875 -26.203125 Z M 10.15625 -30.265625 C 12.390625 -33.34375 14.828125 -27.015625 14.84375 -25.90625 C 14.828125 -25.515625 14.8125 -25.109375 14.71875 -24.6875 C 11.265625 -25.90625 8.6875 -28.109375 10.15625 -30.265625 Z M 13.203125 -20.3125 C 12.265625 -18.5625 10.875 -16.25 9.21875 -15.1875 C 4.25 -11.84375 0.890625 -16.90625 1 -21.21875 C 1.109375 -24.515625 3.171875 -29.640625 6.375 -31.5 C 6.375 -31.5 6.390625 -31.421875 6.390625 -31.421875 C 5.3125 -26.15625 8.734375 -22.296875 13.3125 -20.5625 C 13.25 -20.46875 13.265625 -20.40625 13.203125 -20.3125 Z M 13.203125 -20.3125 "/></g></g></g><g mask="url(#f9bf557f36)"><g transform="matrix(1, 0, 0, 1, 189, 85)"><g clip-path="url(#7cbd0d2443)"><g fill="#ae7b37" fill-opacity="1"><g transform="translate(11.627422, 47.928814)"><g><path d="M -3.609375 -3.9375 C -4.066406 -4.375 -4.445312 -4.890625 -4.75 -5.484375 C -5.0625 -6.078125 -5.242188 -6.707031 -5.296875 -7.375 C -5.359375 -8.039062 -5.285156 -8.707031 -5.078125 -9.375 C -4.867188 -10.050781 -4.488281 -10.691406 -3.9375 -11.296875 C -3.28125 -12.003906 -2.554688 -12.472656 -1.765625 -12.703125 C -0.972656 -12.929688 -0.210938 -12.945312 0.515625 -12.75 L 0.234375 -10.859375 C -0.0664062 -10.953125 -0.359375 -10.992188 -0.640625 -10.984375 C -0.921875 -10.972656 -1.179688 -10.925781 -1.421875 -10.84375 C -1.660156 -10.769531 -1.882812 -10.65625 -2.09375 -10.5 C -2.300781 -10.351562 -2.484375 -10.195312 -2.640625 -10.03125 C -2.992188 -9.65625 -3.222656 -9.257812 -3.328125 -8.84375 C -3.429688 -8.425781 -3.445312 -8.007812 -3.375 -7.59375 C -3.3125 -7.1875 -3.164062 -6.796875 -2.9375 -6.421875 C -2.71875 -6.046875 -2.457031 -5.71875 -2.15625 -5.4375 C -1.8125 -5.113281 -1.429688 -4.859375 -1.015625 -4.671875 C -0.597656 -4.492188 -0.179688 -4.394531 0.234375 -4.375 C 0.648438 -4.351562 1.0625 -4.414062 1.46875 -4.5625 C 1.875 -4.707031 2.234375 -4.953125 2.546875 -5.296875 C 2.691406 -5.460938 2.832031 -5.65625 2.96875 -5.875 C 3.101562 -6.101562 3.203125 -6.347656 3.265625 -6.609375 C 3.328125 -6.867188 3.351562 -7.140625 3.34375 -7.421875 C 3.332031 -7.703125 3.253906 -7.984375 3.109375 -8.265625 L 4.96875 -8.84375 C 5.132812 -8.457031 5.222656 -8.046875 5.234375 -7.609375 C 5.242188 -7.171875 5.191406 -6.738281 5.078125 -6.3125 C 4.972656 -5.882812 4.804688 -5.46875 4.578125 -5.0625 C 4.359375 -4.664062 4.109375 -4.316406 3.828125 -4.015625 C 3.316406 -3.460938 2.734375 -3.0625 2.078125 -2.8125 C 1.429688 -2.570312 0.769531 -2.457031 0.09375 -2.46875 C -0.582031 -2.488281 -1.242188 -2.625 -1.890625 -2.875 C -2.535156 -3.125 -3.109375 -3.476562 -3.609375 -3.9375 Z M -3.609375 -3.9375 "/></g></g></g><g fill="#ae7b37" fill-opacity="1"><g transform="translate(18.544439, 40.352827)"><g><path d="M 4.8125 -2.84375 C 4.15625 -2.4375 3.476562 -2.195312 2.78125 -2.125 C 2.082031 -2.0625 1.410156 -2.125 0.765625 -2.3125 C 0.128906 -2.507812 -0.457031 -2.816406 -1 -3.234375 C -1.550781 -3.648438 -2 -4.144531 -2.34375 -4.71875 C -2.707031 -5.3125 -2.945312 -5.945312 -3.0625 -6.625 C -3.175781 -7.3125 -3.160156 -7.984375 -3.015625 -8.640625 C -2.878906 -9.304688 -2.613281 -9.925781 -2.21875 -10.5 C -1.832031 -11.070312 -1.328125 -11.550781 -0.703125 -11.9375 C -0.0546875 -12.332031 0.609375 -12.5625 1.296875 -12.625 C 1.992188 -12.6875 2.664062 -12.617188 3.3125 -12.421875 C 3.957031 -12.222656 4.550781 -11.910156 5.09375 -11.484375 C 5.632812 -11.066406 6.078125 -10.578125 6.421875 -10.015625 C 6.785156 -9.421875 7.023438 -8.785156 7.140625 -8.109375 C 7.253906 -7.441406 7.242188 -6.78125 7.109375 -6.125 C 6.972656 -5.476562 6.710938 -4.863281 6.328125 -4.28125 C 5.953125 -3.707031 5.445312 -3.226562 4.8125 -2.84375 Z M -0.578125 -5.796875 C -0.335938 -5.398438 -0.0507812 -5.054688 0.28125 -4.765625 C 0.625 -4.484375 0.988281 -4.269531 1.375 -4.125 C 1.757812 -3.988281 2.164062 -3.9375 2.59375 -3.96875 C 3.03125 -4 3.457031 -4.140625 3.875 -4.390625 C 4.289062 -4.648438 4.609375 -4.960938 4.828125 -5.328125 C 5.046875 -5.691406 5.179688 -6.085938 5.234375 -6.515625 C 5.285156 -6.941406 5.253906 -7.363281 5.140625 -7.78125 C 5.035156 -8.207031 4.867188 -8.609375 4.640625 -8.984375 C 4.410156 -9.367188 4.125 -9.707031 3.78125 -10 C 3.4375 -10.289062 3.066406 -10.503906 2.671875 -10.640625 C 2.285156 -10.785156 1.878906 -10.835938 1.453125 -10.796875 C 1.035156 -10.765625 0.628906 -10.625 0.234375 -10.375 C -0.191406 -10.113281 -0.515625 -9.796875 -0.734375 -9.421875 C -0.960938 -9.054688 -1.097656 -8.664062 -1.140625 -8.25 C -1.191406 -7.832031 -1.164062 -7.410156 -1.0625 -6.984375 C -0.957031 -6.554688 -0.796875 -6.160156 -0.578125 -5.796875 Z M -0.578125 -5.796875 "/></g></g></g><g fill="#ae7b37" fill-opacity="1"><g transform="translate(28.145699, 34.500209)"><g><path d="M 1.328125 -7.296875 L 3.03125 -0.796875 L 1.0625 -0.28125 L -1.59375 -10.4375 L -0.078125 -10.828125 L 6.96875 -5.546875 L 5.21875 -12.203125 L 7.203125 -12.71875 L 9.859375 -2.578125 L 8.25 -2.15625 Z M 1.328125 -7.296875 "/></g></g></g><g fill="#ae7b37" fill-opacity="1"><g transform="translate(39.119672, 31.639747)"><g><path d="M 3.390625 -6.609375 L 3.140625 0.109375 L 1.09375 0.046875 L 1.484375 -10.453125 L 3.0625 -10.40625 L 8.28125 -3.3125 L 8.53125 -10.1875 L 10.578125 -10.109375 L 10.1875 0.375 L 8.53125 0.3125 Z M 3.390625 -6.609375 "/></g></g></g><g fill="#ae7b37" fill-opacity="1"><g transform="translate(50.516835, 32.237532)"><g><path d="M 8.53125 0.78125 L 8 2.484375 L 1.046875 0.328125 L 4.171875 -9.703125 L 11 -7.578125 L 10.453125 -5.859375 L 5.578125 -7.375 L 4.828125 -4.953125 L 9.03125 -3.65625 L 8.546875 -2.078125 L 4.34375 -3.375 L 3.53125 -0.765625 Z M 8.53125 0.78125 "/></g></g></g><g fill="#ae7b37" fill-opacity="1"><g transform="translate(59.214855, 34.886331)"><g><path d="M 3.1875 -4.296875 C 3.519531 -4.835938 3.945312 -5.3125 4.46875 -5.71875 C 5 -6.125 5.582031 -6.421875 6.21875 -6.609375 C 6.851562 -6.804688 7.519531 -6.863281 8.21875 -6.78125 C 8.925781 -6.707031 9.625 -6.457031 10.3125 -6.03125 C 11.144531 -5.519531 11.75 -4.898438 12.125 -4.171875 C 12.5 -3.441406 12.660156 -2.691406 12.609375 -1.921875 L 10.6875 -1.859375 C 10.726562 -2.160156 10.71875 -2.453125 10.65625 -2.734375 C 10.601562 -3.015625 10.507812 -3.265625 10.375 -3.484375 C 10.25 -3.703125 10.09375 -3.898438 9.90625 -4.078125 C 9.726562 -4.253906 9.539062 -4.40625 9.34375 -4.53125 C 8.894531 -4.800781 8.457031 -4.945312 8.03125 -4.96875 C 7.601562 -4.988281 7.191406 -4.921875 6.796875 -4.765625 C 6.410156 -4.617188 6.054688 -4.398438 5.734375 -4.109375 C 5.410156 -3.828125 5.140625 -3.507812 4.921875 -3.15625 C 4.671875 -2.757812 4.492188 -2.335938 4.390625 -1.890625 C 4.296875 -1.453125 4.28125 -1.023438 4.34375 -0.609375 C 4.40625 -0.191406 4.546875 0.195312 4.765625 0.5625 C 4.984375 0.925781 5.289062 1.226562 5.6875 1.46875 C 5.875 1.59375 6.09375 1.695312 6.34375 1.78125 C 6.59375 1.875 6.847656 1.925781 7.109375 1.9375 C 7.378906 1.945312 7.648438 1.914062 7.921875 1.84375 C 8.203125 1.78125 8.460938 1.660156 8.703125 1.484375 L 9.625 3.171875 C 9.269531 3.421875 8.878906 3.585938 8.453125 3.671875 C 8.035156 3.765625 7.609375 3.796875 7.171875 3.765625 C 6.734375 3.742188 6.296875 3.660156 5.859375 3.515625 C 5.421875 3.378906 5.023438 3.203125 4.671875 2.984375 C 4.035156 2.597656 3.535156 2.101562 3.171875 1.5 C 2.816406 0.90625 2.578125 0.28125 2.453125 -0.375 C 2.335938 -1.039062 2.34375 -1.71875 2.46875 -2.40625 C 2.59375 -3.09375 2.832031 -3.722656 3.1875 -4.296875 Z M 3.1875 -4.296875 "/></g></g></g><g fill="#ae7b37" fill-opacity="1"><g transform="translate(67.953989, 40.37693)"><g><path d="M 12.46875 0.4375 L 10.15625 -1.96875 L 3.875 4.046875 L 2.46875 2.578125 L 8.75 -3.4375 L 6.421875 -5.875 L 7.71875 -7.125 L 13.765625 -0.8125 Z M 12.46875 0.4375 "/></g></g></g><g fill="#ae7b37" fill-opacity="1"><g transform="translate(74.383778, 47.504277)"><g/></g></g><g fill="#ae7b37" fill-opacity="1"><g transform="translate(76.776289, 50.782426)"><g><path d="M 0.4375 1 L 10.046875 -3.25 L 10.875 -1.375 L 2.890625 2.15625 L 5.0625 7.046875 L 3.4375 7.765625 Z M 0.4375 1 "/></g></g></g><g fill="#ae7b37" fill-opacity="1"><g transform="translate(80.231911, 59.176146)"><g><path d="M 0.25 1.0625 L 10.453125 -1.40625 L 10.9375 0.578125 L 0.734375 3.046875 Z M 0.25 1.0625 "/></g></g></g><g fill="#ae7b37" fill-opacity="1"><g transform="translate(81.482962, 63.719143)"><g><path d="M 0.0625 1.09375 L 10.546875 0.453125 L 10.984375 7.484375 L 9.1875 7.59375 L 8.875 2.609375 L 6.171875 2.78125 L 6.421875 6.921875 L 4.765625 7.015625 L 4.515625 2.875 L 0.1875 3.140625 Z M 0.0625 1.09375 "/></g></g></g><g fill="#ae7b37" fill-opacity="1"><g transform="translate(82.003541, 72.459042)"><g><path d="M 0.328125 8.546875 L -1.421875 8.25 L -0.1875 1.078125 L 10.15625 2.859375 L 8.9375 9.90625 L 7.171875 9.609375 L 8.046875 4.578125 L 5.546875 4.140625 L 4.796875 8.484375 L 3.171875 8.203125 L 3.921875 3.859375 L 1.21875 3.390625 Z M 0.328125 8.546875 "/></g></g></g><g fill="#ae7b37" fill-opacity="1"><g transform="translate(80.154164, 81.610841)"><g/></g></g></g></g></g><path fill="#e6cfc8" d="M 244.480469 158.707031 C 244.671875 158.824219 244.355469 159.5 244.296875 159.648438 C 243.902344 160.667969 243.453125 161.703125 242.9375 162.671875 C 242.5 163.492188 242.210938 164.488281 241.667969 165.253906 C 240.035156 167.566406 234.53125 170.925781 232.382812 167.707031 C 230.582031 165 235.574219 162.074219 237.289062 161.09375 C 237.964844 160.707031 238.601562 160.40625 239.347656 160.171875 C 240.398438 159.84375 241.449219 159.472656 242.5 159.121094 C 242.832031 159.011719 243.164062 158.777344 243.507812 158.726562 C 243.691406 158.703125 244.199219 158.636719 244.035156 158.550781 C 243.902344 158.484375 243.132812 158.738281 242.984375 158.773438 C 242.101562 158.960938 241.171875 159.039062 240.265625 159.121094 C 239.453125 159.195312 238.632812 159.164062 237.816406 159.164062 C 235.203125 159.164062 228.351562 158.085938 229.1875 153.910156 C 229.507812 152.308594 231.390625 152.171875 232.691406 152.246094 C 235.714844 152.414062 238.542969 154.679688 241.101562 156.054688 C 241.796875 156.429688 242.453125 156.84375 243.160156 157.195312 C 243.503906 157.367188 243.828125 157.597656 244.164062 157.765625 C 244.25 157.804688 244.382812 157.941406 244.382812 157.941406 C 244.382812 157.941406 244.199219 157.867188 244.121094 157.808594 C 243.753906 157.53125 243.269531 157.316406 242.984375 156.933594 C 242.316406 156.046875 241.558594 155.136719 240.878906 154.214844 C 240.410156 153.578125 240.050781 152.910156 239.699219 152.203125 C 238.453125 149.707031 236.195312 143.574219 240.398438 142.523438 C 241.714844 142.191406 242.648438 143.183594 243.464844 144.054688 C 245.902344 146.65625 245.421875 150.609375 245.171875 153.867188 C 245.09375 154.898438 245.203125 156.066406 244.953125 157.0625 C 244.851562 157.476562 244.949219 157.953125 244.867188 158.378906 C 244.855469 158.421875 244.824219 158.507812 244.824219 158.507812 L 244.824219 158.289062 C 244.824219 157.933594 244.992188 157.488281 245.085938 157.152344 C 245.28125 156.453125 245.519531 155.683594 245.875 155.046875 C 247.234375 152.601562 248.507812 147.242188 252.269531 147.777344 C 255.378906 148.222656 255.679688 151.660156 254.238281 153.824219 C 252.921875 155.800781 247.59375 158.859375 244.996094 158.859375 C 244.867188 158.859375 245.261719 158.882812 245.390625 158.859375 C 245.691406 158.808594 246.015625 158.746094 246.3125 158.683594 C 247.257812 158.480469 248.191406 158.300781 249.160156 158.203125 C 251.679688 157.949219 254.949219 158.035156 256.867188 159.953125 C 257.539062 160.625 258.472656 161.5625 258.183594 162.625 C 257.890625 163.6875 256.507812 164.105469 255.554688 164.160156 C 252.574219 164.324219 250.546875 162.667969 248.109375 161.179688 C 247.347656 160.71875 246.675781 160.160156 245.917969 159.691406 C 245.832031 159.636719 244.996094 159.246094 244.996094 159.035156 C 244.996094 158.828125 245.332031 159.28125 245.480469 159.429688 C 245.71875 159.667969 245.9375 159.933594 246.179688 160.171875 C 246.867188 160.863281 247.367188 161.617188 247.933594 162.40625 C 249.359375 164.402344 250.566406 167.511719 249.945312 169.984375 C 249.699219 170.96875 249.257812 172.136719 248.238281 172.570312 C 246.03125 173.507812 244.597656 172.003906 243.597656 170.246094 C 241.996094 167.449219 244.480469 161.796875 244.480469 158.707031 Z M 244.480469 158.707031 " fill-opacity="1" fill-rule="evenodd"/><g clip-path="url(#c055878c18)"><path fill="#e6cfc8" d="M 238.003906 159.894531 L 237.988281 159.902344 C 237.628906 160.0625 237.28125 160.246094 236.921875 160.449219 C 235.679688 161.15625 232.847656 162.851562 231.757812 164.75 C 231.128906 165.839844 231.007812 166.996094 231.757812 168.125 C 232.84375 169.753906 234.617188 170.0625 236.484375 169.585938 C 238.8125 168.996094 241.261719 167.152344 242.292969 165.695312 C 242.480469 165.429688 242.640625 165.140625 242.789062 164.84375 C 242.8125 164.796875 242.832031 164.75 242.855469 164.703125 C 242.71875 165.402344 242.609375 166.09375 242.550781 166.757812 C 242.421875 168.210938 242.542969 169.53125 243.109375 170.527344 C 243.785156 171.714844 244.664062 172.777344 245.78125 173.207031 C 246.550781 173.503906 247.433594 173.527344 248.460938 173.089844 C 248.96875 172.875 249.367188 172.519531 249.675781 172.082031 C 250.085938 171.503906 250.335938 170.777344 250.5 170.125 C 250.773438 169.042969 250.726562 167.847656 250.46875 166.664062 C 250.097656 164.976562 249.292969 163.316406 248.40625 162.070312 L 248.390625 162.050781 C 249.65625 162.847656 250.84375 163.648438 252.136719 164.167969 C 253.183594 164.585938 254.304688 164.828125 255.585938 164.757812 C 256.246094 164.71875 257.078125 164.527344 257.71875 164.121094 C 258.21875 163.804688 258.605469 163.359375 258.761719 162.785156 C 258.921875 162.207031 258.824219 161.660156 258.578125 161.148438 C 258.277344 160.527344 257.738281 159.972656 257.296875 159.527344 C 256.445312 158.675781 255.359375 158.144531 254.175781 157.839844 C 253.035156 157.546875 251.808594 157.464844 250.640625 157.492188 C 252.46875 156.449219 254.097656 155.171875 254.765625 154.171875 C 255.582031 152.945312 255.898438 151.355469 255.578125 150.007812 C 255.238281 148.585938 254.222656 147.414062 252.359375 147.144531 C 250.976562 146.945312 249.875 147.414062 248.96875 148.25 C 247.550781 149.558594 246.65625 151.875 245.855469 153.625 C 246.007812 151.699219 246.199219 149.5625 245.851562 147.601562 C 245.589844 146.121094 245.027344 144.742188 243.953125 143.597656 C 243.40625 143.011719 242.800781 142.394531 242.097656 142.058594 C 241.542969 141.796875 240.929688 141.695312 240.234375 141.867188 C 238.152344 142.386719 237.363281 143.929688 237.292969 145.792969 C 237.203125 148.113281 238.316406 150.972656 239.082031 152.507812 C 239.304688 152.949219 239.527344 153.375 239.773438 153.789062 C 239.941406 154.074219 240.125 154.351562 240.324219 154.625 L 240.585938 154.960938 C 239.300781 154.207031 237.957031 153.316406 236.554688 152.640625 C 235.320312 152.042969 234.039062 151.613281 232.730469 151.539062 C 231.835938 151.488281 230.707031 151.542969 229.863281 151.972656 C 229.183594 152.320312 228.664062 152.882812 228.484375 153.769531 C 228.074219 155.820312 229.15625 157.277344 230.855469 158.25 C 233.007812 159.480469 236.191406 159.890625 237.816406 159.890625 Z M 246.382812 159.300781 L 246.441406 159.289062 C 247 159.167969 247.554688 159.054688 248.113281 158.960938 C 248.476562 158.902344 248.847656 158.851562 249.21875 158.8125 C 250.65625 158.667969 252.351562 158.628906 253.875 159.019531 C 254.84375 159.265625 255.742188 159.6875 256.441406 160.382812 C 256.796875 160.738281 257.25 161.175781 257.492188 161.675781 C 257.609375 161.921875 257.675781 162.1875 257.601562 162.46875 C 257.503906 162.832031 257.195312 163.066406 256.851562 163.230469 C 256.425781 163.441406 255.925781 163.539062 255.519531 163.5625 C 254.425781 163.625 253.472656 163.417969 252.578125 163.0625 C 251.140625 162.492188 249.851562 161.550781 248.414062 160.675781 Z M 245.605469 158.1875 L 245.65625 158.179688 L 245.914062 158.132812 C 247.035156 157.894531 248.425781 157.292969 249.734375 156.570312 C 251.476562 155.605469 253.085938 154.417969 253.714844 153.472656 C 254.335938 152.539062 254.589844 151.328125 254.34375 150.304688 C 254.117188 149.355469 253.425781 148.585938 252.179688 148.410156 C 250.886719 148.226562 249.960938 148.914062 249.222656 149.886719 C 247.976562 151.523438 247.230469 153.945312 246.441406 155.363281 C 246.316406 155.59375 246.203125 155.84375 246.105469 156.101562 C 245.949219 156.503906 245.824219 156.925781 245.714844 157.324219 C 245.667969 157.488281 245.605469 157.675781 245.554688 157.867188 C 245.554688 157.964844 245.558594 158.058594 245.550781 158.152344 L 245.550781 158.195312 Z M 244.886719 160.25 C 244.578125 162.230469 243.847656 164.695312 243.660156 166.855469 C 243.558594 168.054688 243.613281 169.148438 244.082031 169.96875 C 244.539062 170.761719 245.082031 171.507812 245.769531 171.941406 C 246.386719 172.328125 247.125 172.425781 248.015625 172.046875 C 248.410156 171.878906 248.683594 171.5625 248.890625 171.199219 C 249.128906 170.777344 249.28125 170.289062 249.394531 169.847656 C 249.675781 168.703125 249.527344 167.410156 249.152344 166.175781 C 248.765625 164.90625 248.140625 163.691406 247.460938 162.746094 C 247.125 162.277344 246.816406 161.824219 246.472656 161.386719 C 246.253906 161.109375 246.027344 160.84375 245.769531 160.585938 L 245.160156 159.941406 C 245.121094 159.917969 245.078125 159.894531 245.039062 159.867188 L 245.015625 159.925781 C 244.972656 160.03125 244.929688 160.140625 244.886719 160.25 Z M 244.289062 157.035156 L 243.804688 156.761719 C 243.707031 156.691406 243.609375 156.613281 243.539062 156.515625 L 241.4375 153.808594 C 241.214844 153.511719 241.023438 153.207031 240.84375 152.890625 C 240.65625 152.570312 240.484375 152.234375 240.3125 151.894531 C 239.617188 150.507812 238.574219 147.9375 238.648438 145.84375 C 238.695312 144.59375 239.167969 143.527344 240.5625 143.175781 C 241.023438 143.0625 241.414062 143.191406 241.765625 143.410156 C 242.214844 143.695312 242.605469 144.121094 242.976562 144.515625 C 243.867188 145.460938 244.320312 146.609375 244.539062 147.835938 C 244.890625 149.785156 244.660156 151.921875 244.515625 153.816406 C 244.460938 154.53125 244.496094 155.316406 244.441406 156.0625 C 244.421875 156.351562 244.382812 156.636719 244.316406 156.90625 C 244.308594 156.949219 244.296875 156.992188 244.289062 157.035156 Z M 243.535156 159.488281 C 243.355469 159.949219 243.164062 160.410156 242.960938 160.867188 C 242.746094 161.359375 242.511719 161.839844 242.261719 162.308594 C 241.953125 162.890625 241.714844 163.554688 241.417969 164.167969 C 241.304688 164.394531 241.1875 164.613281 241.046875 164.8125 C 240.171875 166.054688 238.085938 167.617188 236.113281 168.121094 C 234.898438 168.433594 233.714844 168.347656 233.007812 167.289062 C 232.457031 166.464844 232.863281 165.625 233.503906 164.855469 C 234.675781 163.453125 236.703125 162.285156 237.65625 161.738281 C 237.972656 161.554688 238.28125 161.394531 238.597656 161.25 C 238.90625 161.109375 239.226562 160.984375 239.566406 160.878906 L 242.734375 159.820312 Z M 243.109375 157.964844 L 243.125 157.976562 C 242.988281 158.011719 242.878906 158.046875 242.828125 158.054688 C 242.496094 158.128906 242.152344 158.183594 241.808594 158.230469 C 241.273438 158.300781 240.734375 158.347656 240.203125 158.394531 C 239.894531 158.425781 239.585938 158.4375 239.277344 158.441406 C 238.789062 158.449219 238.300781 158.4375 237.816406 158.4375 C 236.359375 158.441406 233.5 158.101562 231.570312 157 C 230.429688 156.351562 229.613281 155.425781 229.886719 154.050781 C 229.988281 153.53125 230.367188 153.265625 230.804688 153.121094 C 231.390625 152.925781 232.085938 152.921875 232.652344 152.953125 C 233.78125 153.015625 234.878906 153.398438 235.941406 153.910156 C 237.636719 154.726562 239.25 155.855469 240.769531 156.671875 L 242.847656 157.816406 Z M 243.109375 157.964844 " fill-opacity="1" fill-rule="evenodd"/></g><g clip-path="url(#7efab0977e)"><path fill="#e6cfc8" d="M 260.96875 131.144531 C 261.101562 131.238281 260.875 131.777344 260.835938 131.894531 C 260.554688 132.714844 260.234375 133.539062 259.867188 134.3125 C 259.554688 134.96875 259.351562 135.765625 258.964844 136.378906 C 257.804688 138.226562 253.882812 140.914062 252.355469 138.339844 C 251.074219 136.175781 254.625 133.835938 255.847656 133.050781 C 256.328125 132.742188 256.78125 132.503906 257.3125 132.316406 C 258.058594 132.054688 258.808594 131.757812 259.558594 131.476562 C 259.792969 131.386719 260.03125 131.199219 260.273438 131.160156 C 260.40625 131.140625 260.765625 131.085938 260.648438 131.019531 C 260.554688 130.964844 260.007812 131.167969 259.898438 131.195312 C 259.273438 131.347656 258.609375 131.410156 257.96875 131.476562 C 257.386719 131.535156 256.804688 131.511719 256.222656 131.511719 C 254.363281 131.511719 249.484375 130.648438 250.082031 127.308594 C 250.308594 126.027344 251.648438 125.917969 252.574219 125.976562 C 254.726562 126.113281 256.742188 127.921875 258.558594 129.023438 C 259.054688 129.324219 259.523438 129.652344 260.023438 129.933594 C 260.269531 130.074219 260.503906 130.253906 260.742188 130.390625 C 260.800781 130.421875 260.898438 130.53125 260.898438 130.53125 C 260.898438 130.53125 260.765625 130.472656 260.710938 130.425781 C 260.449219 130.203125 260.105469 130.03125 259.898438 129.722656 C 259.425781 129.015625 258.886719 128.289062 258.402344 127.554688 C 258.070312 127.042969 257.8125 126.507812 257.5625 125.941406 C 256.675781 123.949219 255.070312 119.042969 258.0625 118.203125 C 258.996094 117.941406 259.664062 118.734375 260.242188 119.429688 C 261.980469 121.507812 261.636719 124.667969 261.457031 127.273438 C 261.402344 128.097656 261.480469 129.03125 261.304688 129.828125 C 261.230469 130.160156 261.300781 130.542969 261.242188 130.878906 C 261.234375 130.917969 261.210938 130.984375 261.210938 130.984375 L 261.210938 130.808594 C 261.210938 130.523438 261.328125 130.167969 261.398438 129.898438 C 261.535156 129.339844 261.707031 128.726562 261.957031 128.21875 C 262.925781 126.261719 263.832031 121.976562 266.507812 122.40625 C 268.722656 122.761719 268.9375 125.507812 267.910156 127.238281 C 266.972656 128.820312 263.179688 131.265625 261.335938 131.265625 C 261.242188 131.265625 261.523438 131.28125 261.613281 131.265625 C 261.828125 131.226562 262.058594 131.175781 262.269531 131.125 C 262.945312 130.960938 263.605469 130.816406 264.296875 130.738281 C 266.089844 130.539062 268.417969 130.605469 269.78125 132.140625 C 270.261719 132.679688 270.925781 133.425781 270.71875 134.277344 C 270.511719 135.125 269.527344 135.460938 268.847656 135.503906 C 266.726562 135.636719 265.285156 134.308594 263.546875 133.121094 C 263.007812 132.75 262.527344 132.304688 261.988281 131.929688 C 261.925781 131.886719 261.335938 131.574219 261.335938 131.40625 C 261.335938 131.238281 261.574219 131.601562 261.675781 131.71875 C 261.847656 131.914062 262.003906 132.121094 262.175781 132.316406 C 262.664062 132.867188 263.023438 133.472656 263.421875 134.101562 C 264.4375 135.699219 265.296875 138.183594 264.855469 140.160156 C 264.679688 140.949219 264.367188 141.878906 263.640625 142.226562 C 262.070312 142.976562 261.050781 141.773438 260.335938 140.371094 C 259.199219 138.132812 260.96875 133.613281 260.96875 131.144531 Z M 260.96875 131.144531 " fill-opacity="1" fill-rule="evenodd"/></g><g clip-path="url(#fe3c7fe5ad)"><path fill="#e6cfc8" d="M 255.777344 132.222656 C 255.667969 132.289062 255.558594 132.355469 255.445312 132.425781 C 254.53125 133.015625 252.425781 134.4375 251.660156 136.019531 C 251.238281 136.898438 251.175781 137.820312 251.710938 138.722656 C 252.550781 140.148438 253.933594 140.398438 255.390625 139.972656 C 257 139.5 258.6875 138.117188 259.496094 136.960938 C 259.46875 137.167969 259.445312 137.371094 259.429688 137.574219 C 259.335938 138.75 259.425781 139.820312 259.835938 140.625 C 260.320312 141.582031 260.953125 142.433594 261.746094 142.804688 C 262.355469 143.09375 263.0625 143.132812 263.886719 142.738281 C 264.285156 142.550781 264.59375 142.234375 264.832031 141.847656 C 265.121094 141.382812 265.296875 140.808594 265.414062 140.285156 C 265.652344 139.21875 265.554688 138.015625 265.25 136.863281 C 265.007812 135.953125 264.640625 135.074219 264.230469 134.324219 C 264.914062 134.8125 265.578125 135.269531 266.292969 135.59375 C 267.078125 135.953125 267.917969 136.160156 268.882812 136.101562 C 269.398438 136.070312 270.054688 135.894531 270.546875 135.53125 C 270.910156 135.261719 271.1875 134.894531 271.304688 134.417969 C 271.417969 133.953125 271.351562 133.507812 271.179688 133.09375 C 270.960938 132.574219 270.5625 132.109375 270.234375 131.738281 C 269.617188 131.042969 268.828125 130.605469 267.972656 130.347656 C 267.273438 130.140625 266.523438 130.058594 265.796875 130.046875 C 266.984375 129.242188 268.011719 128.304688 268.453125 127.558594 C 269.160156 126.375 269.347656 124.773438 268.867188 123.578125 C 268.5 122.664062 267.769531 121.960938 266.609375 121.773438 C 265.503906 121.59375 264.628906 122.03125 263.917969 122.8125 C 263.195312 123.605469 262.667969 124.804688 262.214844 125.929688 C 262.289062 124.726562 262.320312 123.472656 262.140625 122.296875 C 261.953125 121.078125 261.542969 119.941406 260.757812 118.996094 C 260.363281 118.523438 259.921875 118.023438 259.414062 117.742188 C 258.957031 117.492188 258.453125 117.390625 257.878906 117.550781 C 256.300781 117.992188 255.683594 119.300781 255.648438 120.898438 C 255.609375 122.75 256.394531 125.003906 256.933594 126.222656 C 257.089844 126.578125 257.25 126.917969 257.425781 127.25 C 257.480469 127.351562 257.535156 127.453125 257.59375 127.550781 C 256.707031 126.945312 255.78125 126.308594 254.824219 125.867188 C 254.105469 125.539062 253.367188 125.316406 252.617188 125.269531 C 251.917969 125.222656 251.027344 125.285156 250.375 125.6875 C 249.886719 125.988281 249.507812 126.453125 249.375 127.183594 C 249.082031 128.816406 249.820312 129.984375 250.988281 130.789062 C 252.394531 131.753906 254.476562 132.148438 255.777344 132.222656 Z M 262.621094 131.675781 C 262.882812 131.613281 263.136719 131.554688 263.394531 131.503906 C 263.714844 131.441406 264.035156 131.386719 264.363281 131.351562 C 265.371094 131.234375 266.5625 131.203125 267.625 131.515625 C 268.269531 131.707031 268.867188 132.023438 269.328125 132.542969 C 269.546875 132.785156 269.808594 133.070312 269.984375 133.398438 C 270.109375 133.621094 270.195312 133.867188 270.132812 134.136719 C 270.074219 134.378906 269.894531 134.539062 269.691406 134.65625 C 269.410156 134.8125 269.078125 134.886719 268.808594 134.90625 C 268.054688 134.953125 267.402344 134.789062 266.785156 134.507812 C 265.785156 134.054688 264.886719 133.320312 263.878906 132.632812 Z M 261.917969 130.570312 L 262.03125 130.054688 C 262.109375 129.742188 262.195312 129.40625 262.304688 129.085938 C 262.375 128.882812 262.453125 128.6875 262.539062 128.507812 C 263.085938 127.398438 263.605469 125.535156 264.453125 124.226562 C 264.941406 123.472656 265.535156 122.898438 266.40625 123.035156 C 267.242188 123.167969 267.679688 123.777344 267.816406 124.5 C 267.96875 125.289062 267.792969 126.203125 267.371094 126.917969 C 266.9375 127.644531 265.835938 128.558594 264.644531 129.308594 C 263.742188 129.875 262.785156 130.355469 262.003906 130.550781 Z M 261.367188 132.703125 L 261.453125 132.460938 L 261.476562 132.394531 L 261.738281 132.703125 C 261.921875 132.90625 262.082031 133.117188 262.234375 133.335938 C 262.476562 133.683594 262.695312 134.042969 262.933594 134.414062 C 263.414062 135.171875 263.863281 136.144531 264.132812 137.160156 C 264.394531 138.128906 264.496094 139.140625 264.296875 140.035156 C 264.222656 140.378906 264.121094 140.75 263.957031 141.078125 C 263.824219 141.347656 263.652344 141.589844 263.394531 141.714844 C 262.820312 141.988281 262.347656 141.910156 261.957031 141.617188 C 261.5 141.277344 261.144531 140.714844 260.835938 140.117188 C 260.507812 139.46875 260.472656 138.605469 260.542969 137.660156 C 260.667969 136.046875 261.125 134.222656 261.367188 132.703125 Z M 260.691406 129.53125 L 260.625 129.492188 C 260.570312 129.445312 260.519531 129.398438 260.476562 129.339844 L 258.980469 127.175781 C 258.828125 126.9375 258.691406 126.699219 258.5625 126.453125 C 258.433594 126.195312 258.3125 125.933594 258.191406 125.664062 C 257.707031 124.578125 256.980469 122.574219 257.011719 120.925781 C 257.027344 119.964844 257.296875 119.121094 258.242188 118.851562 C 258.503906 118.78125 258.71875 118.878906 258.917969 119.019531 C 259.21875 119.242188 259.480469 119.5625 259.726562 119.859375 C 260.355469 120.609375 260.671875 121.527344 260.824219 122.5 C 261.0625 124.042969 260.902344 125.730469 260.800781 127.226562 C 260.761719 127.800781 260.789062 128.425781 260.75 129.023438 C 260.738281 129.195312 260.71875 129.367188 260.691406 129.53125 Z M 259.949219 132.101562 C 259.859375 132.347656 259.769531 132.589844 259.671875 132.835938 C 259.519531 133.226562 259.351562 133.609375 259.175781 133.984375 C 258.957031 134.449219 258.789062 134.980469 258.574219 135.472656 C 258.5 135.648438 258.417969 135.816406 258.320312 135.972656 C 257.722656 136.921875 256.308594 138.121094 254.960938 138.523438 C 254.199219 138.75 253.445312 138.703125 253.003906 137.957031 C 252.644531 137.355469 252.898438 136.746094 253.300781 136.183594 C 254.109375 135.058594 255.570312 134.113281 256.25 133.675781 C 256.464844 133.535156 256.675781 133.410156 256.894531 133.300781 C 257.105469 133.191406 257.324219 133.097656 257.558594 133.011719 L 259.816406 132.164062 Z M 259.625 130.507812 C 259.429688 130.550781 259.226562 130.585938 259.027344 130.617188 C 258.648438 130.671875 258.269531 130.710938 257.894531 130.75 C 257.683594 130.769531 257.46875 130.78125 257.257812 130.785156 C 256.914062 130.789062 256.566406 130.78125 256.222656 130.785156 C 255.191406 130.785156 253.132812 130.511719 251.804688 129.601562 C 251.09375 129.113281 250.609375 128.425781 250.785156 127.433594 C 250.84375 127.097656 251.046875 126.914062 251.292969 126.816406 C 251.679688 126.660156 252.148438 126.664062 252.53125 126.6875 C 253.308594 126.734375 254.0625 127.039062 254.796875 127.4375 C 255.992188 128.085938 257.128906 128.976562 258.195312 129.625 Z M 259.625 130.507812 " fill-opacity="1" fill-rule="evenodd"/></g><path fill="#d8990b" d="M 243.675781 156.332031 C 244.011719 156.332031 244.335938 156.390625 244.644531 156.507812 C 244.953125 156.625 245.226562 156.792969 245.464844 157.011719 C 245.703125 157.230469 245.886719 157.484375 246.015625 157.769531 C 246.144531 158.054688 246.207031 158.351562 246.207031 158.660156 C 246.207031 158.96875 246.144531 159.265625 246.015625 159.550781 C 245.886719 159.835938 245.703125 160.089844 245.464844 160.308594 C 245.226562 160.527344 244.953125 160.695312 244.644531 160.8125 C 244.335938 160.929688 244.011719 160.988281 243.675781 160.988281 C 243.339844 160.988281 243.015625 160.929688 242.707031 160.8125 C 242.398438 160.695312 242.125 160.527344 241.886719 160.308594 C 241.648438 160.089844 241.464844 159.835938 241.335938 159.550781 C 241.210938 159.265625 241.144531 158.96875 241.144531 158.660156 C 241.144531 158.351562 241.210938 158.054688 241.335938 157.769531 C 241.464844 157.484375 241.648438 157.230469 241.886719 157.011719 C 242.125 156.792969 242.398438 156.625 242.707031 156.507812 C 243.015625 156.390625 243.339844 156.332031 243.675781 156.332031 Z M 243.675781 156.332031 " fill-opacity="1" fill-rule="nonzero"/><path fill="#d8990b" d="M 240.597656 158.660156 C 240.585938 159.484375 240.949219 160.234375 241.542969 160.773438 C 242.089844 161.273438 242.84375 161.582031 243.675781 161.59375 C 244.515625 161.605469 245.277344 161.300781 245.847656 160.816406 C 246.472656 160.277344 246.855469 159.507812 246.867188 158.660156 C 246.878906 157.800781 246.5 157.023438 245.882812 156.464844 C 245.316406 155.945312 244.535156 155.628906 243.675781 155.613281 C 242.808594 155.601562 242.019531 155.917969 241.433594 156.421875 C 240.78125 156.980469 240.386719 157.777344 240.375 158.660156 Z M 241.917969 158.660156 C 241.910156 158.222656 242.101562 157.824219 242.417969 157.535156 C 242.742188 157.242188 243.183594 157.054688 243.675781 157.046875 C 244.175781 157.039062 244.632812 157.203125 244.972656 157.496094 C 245.3125 157.789062 245.539062 158.195312 245.546875 158.660156 C 245.554688 159.132812 245.347656 159.558594 245.007812 159.867188 C 244.664062 160.179688 244.195312 160.378906 243.675781 160.386719 C 243.148438 160.394531 242.664062 160.214844 242.304688 159.910156 C 241.941406 159.597656 241.699219 159.15625 241.695312 158.660156 Z M 241.917969 158.660156 " fill-opacity="1" fill-rule="evenodd"/><g fill="#ae7b37" fill-opacity="1"><g transform="translate(13.840535, 187.363777)"><g><path d="M 16.3125 0.375 C 25.734375 0.375 31.375 -3.109375 31.375 -9.234375 C 31.421875 -19.9375 11.765625 -18.40625 11.765625 -23.625 C 11.765625 -25.546875 14.6875 -26.453125 18.078125 -26.453125 C 21.234375 -26.40625 24.625 -25.25 27.21875 -23.25 C 28.03125 -22.390625 29.171875 -22.8125 29.125 -24.203125 C 29.078125 -26.25 28.9375 -28.703125 28.84375 -30.703125 C 28.84375 -31.28125 28.5 -31.8125 27.9375 -32.046875 C 24.671875 -33.234375 20.046875 -33.859375 16.3125 -33.859375 C 7.75 -33.859375 1.96875 -31.046875 1.96875 -24.875 C 1.96875 -14.390625 20.75 -16.125 20.75 -10.5625 C 20.703125 -8.5625 18.65625 -7.359375 14.875 -7.359375 C 10.46875 -7.359375 6.125 -8.65625 2.96875 -11.765625 C 2.203125 -12.625 0.953125 -12.296875 0.953125 -10.90625 C 0.953125 -8.375 1 -5.734375 1 -3.296875 C 1.046875 -2.578125 1.390625 -2.0625 1.90625 -1.859375 C 5.890625 -0.578125 12.25 0.375 16.3125 0.375 Z M 16.3125 0.375 "/></g></g></g><g fill="#ae7b37" fill-opacity="1"><g transform="translate(47.173828, 187.363777)"><g><path d="M 5.59375 0.1875 C 6.890625 0.1875 9.09375 0.140625 10.234375 0 C 10.8125 -0.09375 11.328125 -0.484375 11.328125 -1.203125 C 11.1875 -2.96875 11.390625 -4.921875 11.71875 -6.359375 C 12.25 -7.75 13.734375 -8.5625 15.734375 -8.609375 L 19.125 -8.609375 C 21.140625 -8.5625 22.671875 -7.84375 23.15625 -6.359375 C 23.484375 -4.828125 23.671875 -2.921875 23.578125 -1.203125 C 23.53125 -0.484375 24.0625 -0.09375 24.625 0 C 25.734375 0.140625 27.984375 0.1875 28.890625 0.1875 C 29.75 0.1875 32.1875 0.140625 33.1875 0.046875 C 34 -0.046875 34.484375 -0.625 34.25 -1.4375 C 31.65625 -12.859375 27.21875 -25.25 23.578125 -32.671875 C 23.34375 -33.09375 22.90625 -33.390625 22.390625 -33.484375 C 20.953125 -33.671875 18.703125 -33.671875 17.40625 -33.671875 C 16.125 -33.671875 13.875 -33.671875 12.484375 -33.484375 C 11.953125 -33.390625 11.53125 -33.09375 11.328125 -32.671875 C 7.65625 -25.203125 3.203125 -12.90625 0.625 -1.4375 C 0.375 -0.671875 0.859375 -0.09375 1.71875 0 C 2.671875 0.09375 4.5 0.1875 5.59375 0.1875 Z M 16.6875 -12.765625 C 14.78125 -12.859375 13.96875 -13.671875 14.390625 -15.109375 C 14.875 -17.75 15.59375 -20.609375 16.453125 -23.34375 C 17.03125 -25.015625 17.796875 -25.015625 18.40625 -23.34375 C 19.234375 -20.609375 20.046875 -17.75 20.46875 -15.109375 C 20.953125 -13.734375 20.09375 -12.859375 18.171875 -12.765625 Z M 16.6875 -12.765625 "/></g></g></g><g fill="#ae7b37" fill-opacity="1"><g transform="translate(83.13744, 187.363777)"><g><path d="M 6.75 0.1875 C 7.65625 0.1875 10 0.140625 11.046875 0 C 11.765625 -0.09375 12.390625 -0.625 12.296875 -1.390625 C 11.90625 -4.640625 11.28125 -8.078125 11.28125 -11.484375 C 11.28125 -13.15625 12.140625 -14.546875 13.15625 -14.546875 C 17.546875 -14.546875 21.515625 -7.84375 21.859375 -1.34375 C 21.90625 -0.578125 22.4375 -0.140625 23.203125 0 C 24.4375 0.140625 27.21875 0.1875 28.3125 0.1875 C 29.5625 0.1875 31.375 0.1875 32.515625 0 C 33.34375 -0.1875 33.90625 -0.71875 33.859375 -1.53125 C 33.09375 -12.046875 28.65625 -16.78125 20.1875 -18.125 C 19.234375 -18.359375 19.234375 -19.125 20.1875 -19.375 C 27.84375 -20.859375 31.515625 -25.15625 31.90625 -31.953125 C 32 -32.8125 31.46875 -33.4375 30.609375 -33.53125 C 29.421875 -33.625 27.6875 -33.71875 26.640625 -33.71875 C 25.59375 -33.71875 23.8125 -33.671875 22.625 -33.53125 C 21.953125 -33.4375 21.46875 -33.046875 21.375 -32.328125 C 20.75 -27.734375 17.84375 -22.234375 13.484375 -22.234375 C 12.390625 -22.234375 11.328125 -23.296875 11.328125 -24.921875 C 11.328125 -27.5 11.71875 -29.890625 12.09375 -32.09375 C 12.25 -32.859375 11.671875 -33.34375 10.90625 -33.484375 C 9.859375 -33.625 7.984375 -33.671875 7.03125 -33.671875 C 6.03125 -33.671875 4.40625 -33.625 3.34375 -33.484375 C 2.625 -33.34375 2.203125 -32.953125 2.15625 -32.28125 C 1.625 -25.15625 1.140625 -12.671875 1.140625 -1.390625 C 1.140625 -0.625 1.71875 -0.09375 2.390625 0 C 3.640625 0.140625 5.828125 0.1875 6.75 0.1875 Z M 6.75 0.1875 "/></g></g></g><g fill="#ae7b37" fill-opacity="1"><g transform="translate(118.861934, 187.363777)"><g><path d="M 16.40625 0.375 C 26.359375 0.375 31.90625 -3.921875 31.90625 -13.296875 C 31.90625 -19.46875 31.328125 -27.359375 30.75 -32.28125 C 30.609375 -32.953125 30.171875 -33.390625 29.515625 -33.484375 C 28.5 -33.625 26.6875 -33.671875 25.734375 -33.671875 C 24.828125 -33.671875 22.671875 -33.625 21.671875 -33.484375 C 21 -33.390625 20.328125 -32.859375 20.515625 -32 C 21.328125 -26.6875 21.953125 -19.984375 21.859375 -14.734375 C 21.8125 -10.671875 20.09375 -7.703125 16.40625 -7.703125 C 12.8125 -7.703125 11.046875 -10.515625 10.953125 -14.734375 C 10.859375 -19.984375 11.484375 -26.78125 12.34375 -32 C 12.484375 -32.8125 11.8125 -33.390625 11.140625 -33.484375 C 10.1875 -33.625 8.03125 -33.671875 7.171875 -33.671875 C 6.171875 -33.671875 4.296875 -33.625 3.296875 -33.484375 C 2.671875 -33.390625 2.203125 -32.953125 2.109375 -32.28125 C 1.53125 -27.359375 0.90625 -19.46875 0.90625 -13.296875 C 0.90625 -3.921875 6.453125 0.375 16.40625 0.375 Z M 16.40625 0.375 "/></g></g></g><g fill="#ae7b37" fill-opacity="1"><g transform="translate(152.769112, 187.363777)"><g><path d="M 6.5 0.1875 C 7.890625 0.1875 9.65625 0.140625 10.953125 0 C 11.671875 -0.09375 12.34375 -0.671875 12.203125 -1.4375 C 11.8125 -4.359375 11.140625 -7.984375 11.1875 -11.53125 C 11.234375 -13.015625 11.953125 -13.921875 13.0625 -13.828125 C 17.21875 -13.296875 20.609375 -7.609375 20.65625 -1.34375 C 20.703125 -0.578125 21.28125 -0.09375 22 0 C 23.25 0.140625 25.4375 0.1875 26.5 0.1875 C 27.453125 0.1875 29.46875 0.140625 30.703125 0 C 31.46875 -0.09375 32.046875 -0.625 32 -1.390625 C 31.703125 -9.65625 27.890625 -14.25 21.1875 -15.59375 C 20.28125 -15.734375 20.28125 -16.5 21.1875 -16.6875 C 27.359375 -17.84375 30.9375 -21.671875 30.9375 -26.015625 C 30.9375 -31.328125 25.921875 -33.765625 16.828125 -33.765625 C 12.046875 -33.765625 5.640625 -33.71875 3.4375 -33.578125 C 2.828125 -33.53125 2.25 -33 2.203125 -32.375 C 1.859375 -26.0625 1.140625 -9.953125 1.140625 -1.296875 C 1.140625 -0.625 1.671875 -0.140625 2.390625 0 C 3.296875 0.140625 5.125 0.1875 6.5 0.1875 Z M 13.203125 -18.609375 C 12.09375 -18.359375 11.28125 -18.65625 11.1875 -19.84375 C 11.09375 -21.328125 11.140625 -23.203125 11.1875 -24.53125 C 11.28125 -25.390625 11.8125 -26.015625 12.71875 -26.0625 C 13.53125 -26.109375 14.296875 -26.109375 15.359375 -26.109375 C 19.375 -26.109375 21.375 -25.203125 21.375 -23.15625 C 21.375 -20.953125 18.46875 -19.328125 13.203125 -18.609375 Z M 13.203125 -18.609375 "/></g></g></g><g fill="#ae7b37" fill-opacity="1"><g transform="translate(186.867591, 187.363777)"><g><path d="M 5.59375 0.1875 C 6.890625 0.1875 9.09375 0.140625 10.234375 0 C 10.8125 -0.09375 11.328125 -0.484375 11.328125 -1.203125 C 11.1875 -2.96875 11.390625 -4.921875 11.71875 -6.359375 C 12.25 -7.75 13.734375 -8.5625 15.734375 -8.609375 L 19.125 -8.609375 C 21.140625 -8.5625 22.671875 -7.84375 23.15625 -6.359375 C 23.484375 -4.828125 23.671875 -2.921875 23.578125 -1.203125 C 23.53125 -0.484375 24.0625 -0.09375 24.625 0 C 25.734375 0.140625 27.984375 0.1875 28.890625 0.1875 C 29.75 0.1875 32.1875 0.140625 33.1875 0.046875 C 34 -0.046875 34.484375 -0.625 34.25 -1.4375 C 31.65625 -12.859375 27.21875 -25.25 23.578125 -32.671875 C 23.34375 -33.09375 22.90625 -33.390625 22.390625 -33.484375 C 20.953125 -33.671875 18.703125 -33.671875 17.40625 -33.671875 C 16.125 -33.671875 13.875 -33.671875 12.484375 -33.484375 C 11.953125 -33.390625 11.53125 -33.09375 11.328125 -32.671875 C 7.65625 -25.203125 3.203125 -12.90625 0.625 -1.4375 C 0.375 -0.671875 0.859375 -0.09375 1.71875 0 C 2.671875 0.09375 4.5 0.1875 5.59375 0.1875 Z M 16.6875 -12.765625 C 14.78125 -12.859375 13.96875 -13.671875 14.390625 -15.109375 C 14.875 -17.75 15.59375 -20.609375 16.453125 -23.34375 C 17.03125 -25.015625 17.796875 -25.015625 18.40625 -23.34375 C 19.234375 -20.609375 20.046875 -17.75 20.46875 -15.109375 C 20.953125 -13.734375 20.09375 -12.859375 18.171875 -12.765625 Z M 16.6875 -12.765625 "/></g></g></g><g fill="#e6cfc8" fill-opacity="1"><g transform="translate(11.373917, 185.571673)"><g><path d="M 16.3125 0.375 C 25.734375 0.375 31.375 -3.109375 31.375 -9.234375 C 31.421875 -19.9375 11.765625 -18.40625 11.765625 -23.625 C 11.765625 -25.546875 14.6875 -26.453125 18.078125 -26.453125 C 21.234375 -26.40625 24.625 -25.25 27.21875 -23.25 C 28.03125 -22.390625 29.171875 -22.8125 29.125 -24.203125 C 29.078125 -26.25 28.9375 -28.703125 28.84375 -30.703125 C 28.84375 -31.28125 28.5 -31.8125 27.9375 -32.046875 C 24.671875 -33.234375 20.046875 -33.859375 16.3125 -33.859375 C 7.75 -33.859375 1.96875 -31.046875 1.96875 -24.875 C 1.96875 -14.390625 20.75 -16.125 20.75 -10.5625 C 20.703125 -8.5625 18.65625 -7.359375 14.875 -7.359375 C 10.46875 -7.359375 6.125 -8.65625 2.96875 -11.765625 C 2.203125 -12.625 0.953125 -12.296875 0.953125 -10.90625 C 0.953125 -8.375 1 -5.734375 1 -3.296875 C 1.046875 -2.578125 1.390625 -2.0625 1.90625 -1.859375 C 5.890625 -0.578125 12.25 0.375 16.3125 0.375 Z M 16.3125 0.375 "/></g></g></g><g fill="#e6cfc8" fill-opacity="1"><g transform="translate(44.70721, 185.571673)"><g><path d="M 5.59375 0.1875 C 6.890625 0.1875 9.09375 0.140625 10.234375 0 C 10.8125 -0.09375 11.328125 -0.484375 11.328125 -1.203125 C 11.1875 -2.96875 11.390625 -4.921875 11.71875 -6.359375 C 12.25 -7.75 13.734375 -8.5625 15.734375 -8.609375 L 19.125 -8.609375 C 21.140625 -8.5625 22.671875 -7.84375 23.15625 -6.359375 C 23.484375 -4.828125 23.671875 -2.921875 23.578125 -1.203125 C 23.53125 -0.484375 24.0625 -0.09375 24.625 0 C 25.734375 0.140625 27.984375 0.1875 28.890625 0.1875 C 29.75 0.1875 32.1875 0.140625 33.1875 0.046875 C 34 -0.046875 34.484375 -0.625 34.25 -1.4375 C 31.65625 -12.859375 27.21875 -25.25 23.578125 -32.671875 C 23.34375 -33.09375 22.90625 -33.390625 22.390625 -33.484375 C 20.953125 -33.671875 18.703125 -33.671875 17.40625 -33.671875 C 16.125 -33.671875 13.875 -33.671875 12.484375 -33.484375 C 11.953125 -33.390625 11.53125 -33.09375 11.328125 -32.671875 C 7.65625 -25.203125 3.203125 -12.90625 0.625 -1.4375 C 0.375 -0.671875 0.859375 -0.09375 1.71875 0 C 2.671875 0.09375 4.5 0.1875 5.59375 0.1875 Z M 16.6875 -12.765625 C 14.78125 -12.859375 13.96875 -13.671875 14.390625 -15.109375 C 14.875 -17.75 15.59375 -20.609375 16.453125 -23.34375 C 17.03125 -25.015625 17.796875 -25.015625 18.40625 -23.34375 C 19.234375 -20.609375 20.046875 -17.75 20.46875 -15.109375 C 20.953125 -13.734375 20.09375 -12.859375 18.171875 -12.765625 Z M 16.6875 -12.765625 "/></g></g></g><g fill="#e6cfc8" fill-opacity="1"><g transform="translate(80.670823, 185.571673)"><g><path d="M 6.75 0.1875 C 7.65625 0.1875 10 0.140625 11.046875 0 C 11.765625 -0.09375 12.390625 -0.625 12.296875 -1.390625 C 11.90625 -4.640625 11.28125 -8.078125 11.28125 -11.484375 C 11.28125 -13.15625 12.140625 -14.546875 13.15625 -14.546875 C 17.546875 -14.546875 21.515625 -7.84375 21.859375 -1.34375 C 21.90625 -0.578125 22.4375 -0.140625 23.203125 0 C 24.4375 0.140625 27.21875 0.1875 28.3125 0.1875 C 29.5625 0.1875 31.375 0.1875 32.515625 0 C 33.34375 -0.1875 33.90625 -0.71875 33.859375 -1.53125 C 33.09375 -12.046875 28.65625 -16.78125 20.1875 -18.125 C 19.234375 -18.359375 19.234375 -19.125 20.1875 -19.375 C 27.84375 -20.859375 31.515625 -25.15625 31.90625 -31.953125 C 32 -32.8125 31.46875 -33.4375 30.609375 -33.53125 C 29.421875 -33.625 27.6875 -33.71875 26.640625 -33.71875 C 25.59375 -33.71875 23.8125 -33.671875 22.625 -33.53125 C 21.953125 -33.4375 21.46875 -33.046875 21.375 -32.328125 C 20.75 -27.734375 17.84375 -22.234375 13.484375 -22.234375 C 12.390625 -22.234375 11.328125 -23.296875 11.328125 -24.921875 C 11.328125 -27.5 11.71875 -29.890625 12.09375 -32.09375 C 12.25 -32.859375 11.671875 -33.34375 10.90625 -33.484375 C 9.859375 -33.625 7.984375 -33.671875 7.03125 -33.671875 C 6.03125 -33.671875 4.40625 -33.625 3.34375 -33.484375 C 2.625 -33.34375 2.203125 -32.953125 2.15625 -32.28125 C 1.625 -25.15625 1.140625 -12.671875 1.140625 -1.390625 C 1.140625 -0.625 1.71875 -0.09375 2.390625 0 C 3.640625 0.140625 5.828125 0.1875 6.75 0.1875 Z M 6.75 0.1875 "/></g></g></g><g fill="#e6cfc8" fill-opacity="1"><g transform="translate(116.395316, 185.571673)"><g><path d="M 16.40625 0.375 C 26.359375 0.375 31.90625 -3.921875 31.90625 -13.296875 C 31.90625 -19.46875 31.328125 -27.359375 30.75 -32.28125 C 30.609375 -32.953125 30.171875 -33.390625 29.515625 -33.484375 C 28.5 -33.625 26.6875 -33.671875 25.734375 -33.671875 C 24.828125 -33.671875 22.671875 -33.625 21.671875 -33.484375 C 21 -33.390625 20.328125 -32.859375 20.515625 -32 C 21.328125 -26.6875 21.953125 -19.984375 21.859375 -14.734375 C 21.8125 -10.671875 20.09375 -7.703125 16.40625 -7.703125 C 12.8125 -7.703125 11.046875 -10.515625 10.953125 -14.734375 C 10.859375 -19.984375 11.484375 -26.78125 12.34375 -32 C 12.484375 -32.8125 11.8125 -33.390625 11.140625 -33.484375 C 10.1875 -33.625 8.03125 -33.671875 7.171875 -33.671875 C 6.171875 -33.671875 4.296875 -33.625 3.296875 -33.484375 C 2.671875 -33.390625 2.203125 -32.953125 2.109375 -32.28125 C 1.53125 -27.359375 0.90625 -19.46875 0.90625 -13.296875 C 0.90625 -3.921875 6.453125 0.375 16.40625 0.375 Z M 16.40625 0.375 "/></g></g></g><g fill="#e6cfc8" fill-opacity="1"><g transform="translate(150.302495, 185.571673)"><g><path d="M 6.5 0.1875 C 7.890625 0.1875 9.65625 0.140625 10.953125 0 C 11.671875 -0.09375 12.34375 -0.671875 12.203125 -1.4375 C 11.8125 -4.359375 11.140625 -7.984375 11.1875 -11.53125 C 11.234375 -13.015625 11.953125 -13.921875 13.0625 -13.828125 C 17.21875 -13.296875 20.609375 -7.609375 20.65625 -1.34375 C 20.703125 -0.578125 21.28125 -0.09375 22 0 C 23.25 0.140625 25.4375 0.1875 26.5 0.1875 C 27.453125 0.1875 29.46875 0.140625 30.703125 0 C 31.46875 -0.09375 32.046875 -0.625 32 -1.390625 C 31.703125 -9.65625 27.890625 -14.25 21.1875 -15.59375 C 20.28125 -15.734375 20.28125 -16.5 21.1875 -16.6875 C 27.359375 -17.84375 30.9375 -21.671875 30.9375 -26.015625 C 30.9375 -31.328125 25.921875 -33.765625 16.828125 -33.765625 C 12.046875 -33.765625 5.640625 -33.71875 3.4375 -33.578125 C 2.828125 -33.53125 2.25 -33 2.203125 -32.375 C 1.859375 -26.0625 1.140625 -9.953125 1.140625 -1.296875 C 1.140625 -0.625 1.671875 -0.140625 2.390625 0 C 3.296875 0.140625 5.125 0.1875 6.5 0.1875 Z M 13.203125 -18.609375 C 12.09375 -18.359375 11.28125 -18.65625 11.1875 -19.84375 C 11.09375 -21.328125 11.140625 -23.203125 11.1875 -24.53125 C 11.28125 -25.390625 11.8125 -26.015625 12.71875 -26.0625 C 13.53125 -26.109375 14.296875 -26.109375 15.359375 -26.109375 C 19.375 -26.109375 21.375 -25.203125 21.375 -23.15625 C 21.375 -20.953125 18.46875 -19.328125 13.203125 -18.609375 Z M 13.203125 -18.609375 "/></g></g></g><g fill="#e6cfc8" fill-opacity="1"><g transform="translate(184.400973, 185.571673)"><g><path d="M 5.59375 0.1875 C 6.890625 0.1875 9.09375 0.140625 10.234375 0 C 10.8125 -0.09375 11.328125 -0.484375 11.328125 -1.203125 C 11.1875 -2.96875 11.390625 -4.921875 11.71875 -6.359375 C 12.25 -7.75 13.734375 -8.5625 15.734375 -8.609375 L 19.125 -8.609375 C 21.140625 -8.5625 22.671875 -7.84375 23.15625 -6.359375 C 23.484375 -4.828125 23.671875 -2.921875 23.578125 -1.203125 C 23.53125 -0.484375 24.0625 -0.09375 24.625 0 C 25.734375 0.140625 27.984375 0.1875 28.890625 0.1875 C 29.75 0.1875 32.1875 0.140625 33.1875 0.046875 C 34 -0.046875 34.484375 -0.625 34.25 -1.4375 C 31.65625 -12.859375 27.21875 -25.25 23.578125 -32.671875 C 23.34375 -33.09375 22.90625 -33.390625 22.390625 -33.484375 C 20.953125 -33.671875 18.703125 -33.671875 17.40625 -33.671875 C 16.125 -33.671875 13.875 -33.671875 12.484375 -33.484375 C 11.953125 -33.390625 11.53125 -33.09375 11.328125 -32.671875 C 7.65625 -25.203125 3.203125 -12.90625 0.625 -1.4375 C 0.375 -0.671875 0.859375 -0.09375 1.71875 0 C 2.671875 0.09375 4.5 0.1875 5.59375 0.1875 Z M 16.6875 -12.765625 C 14.78125 -12.859375 13.96875 -13.671875 14.390625 -15.109375 C 14.875 -17.75 15.59375 -20.609375 16.453125 -23.34375 C 17.03125 -25.015625 17.796875 -25.015625 18.40625 -23.34375 C 19.234375 -20.609375 20.046875 -17.75 20.46875 -15.109375 C 20.953125 -13.734375 20.09375 -12.859375 18.171875 -12.765625 Z M 16.6875 -12.765625 "/></g></g></g><g clip-path="url(#70d9ac64c9)"><g clip-path="url(#c588bae4aa)"><g clip-path="url(#f4be6221b4)"><path fill="#e1ad37" d="M 226.796875 142.285156 C 226.859375 142.425781 226.414062 142.679688 226.324219 142.742188 C 225.699219 143.160156 225.042969 143.5625 224.371094 143.902344 C 223.800781 144.191406 223.246094 144.632812 222.640625 144.851562 C 220.816406 145.503906 216.402344 145.21875 216.46875 142.566406 C 216.519531 140.339844 220.476562 140.664062 221.824219 140.789062 C 222.355469 140.839844 222.832031 140.921875 223.339844 141.085938 C 224.058594 141.316406 224.796875 141.519531 225.523438 141.738281 C 225.75 141.804688 226.03125 141.804688 226.246094 141.914062 C 226.355469 141.972656 226.667969 142.132812 226.609375 142.023438 C 226.558594 141.933594 226.027344 141.773438 225.933594 141.730469 C 225.363281 141.488281 224.808594 141.167969 224.269531 140.859375 C 223.785156 140.578125 223.335938 140.238281 222.878906 139.917969 C 221.414062 138.886719 217.996094 135.582031 220.109375 133.570312 C 220.921875 132.796875 222.027344 133.464844 222.730469 134.015625 C 224.359375 135.300781 225.054688 137.6875 225.945312 139.464844 C 226.1875 139.953125 226.394531 140.441406 226.652344 140.917969 C 226.777344 141.148438 226.871094 141.40625 226.992188 141.632812 C 227.023438 141.6875 227.046875 141.816406 227.046875 141.816406 C 227.046875 141.816406 226.972656 141.703125 226.949219 141.640625 C 226.851562 141.339844 226.667969 141.027344 226.65625 140.699219 C 226.632812 139.941406 226.566406 139.128906 226.546875 138.347656 C 226.535156 137.804688 226.597656 137.289062 226.679688 136.753906 C 226.960938 134.863281 228.113281 130.535156 230.882812 131.597656 C 231.75 131.933594 231.886719 132.859375 232 133.667969 C 232.34375 136.085938 230.515625 138.113281 229.09375 139.84375 C 228.640625 140.390625 228.242188 141.089844 227.710938 141.550781 C 227.488281 141.742188 227.359375 142.046875 227.144531 142.253906 C 227.121094 142.273438 227.066406 142.308594 227.066406 142.308594 L 227.152344 142.1875 C 227.292969 141.984375 227.5625 141.804688 227.75 141.652344 C 228.132812 141.335938 228.570312 141 229.019531 140.78125 C 230.746094 139.945312 233.574219 137.441406 235.472656 139.222656 C 237.039062 140.699219 235.855469 142.746094 234.195312 143.390625 C 232.675781 143.980469 228.484375 143.597656 227.027344 142.574219 C 226.953125 142.523438 227.167969 142.691406 227.25 142.730469 C 227.4375 142.820312 227.640625 142.914062 227.832031 142.992188 C 228.445312 143.253906 229.039062 143.519531 229.621094 143.84375 C 231.132812 144.695312 232.933594 146.03125 233.253906 147.863281 C 233.367188 148.507812 233.519531 149.398438 232.9375 149.878906 C 232.359375 150.359375 231.417969 150.050781 230.859375 149.703125 C 229.125 148.625 228.640625 146.894531 227.855469 145.101562 C 227.613281 144.542969 227.457031 143.964844 227.214844 143.402344 C 227.1875 143.339844 226.875 142.792969 226.957031 142.671875 C 227.039062 142.554688 227.050781 142.945312 227.074219 143.082031 C 227.113281 143.3125 227.132812 143.546875 227.171875 143.777344 C 227.289062 144.433594 227.269531 145.054688 227.277344 145.71875 C 227.289062 147.402344 226.742188 149.621094 225.421875 150.765625 C 224.894531 151.21875 224.1875 151.699219 223.445312 151.539062 C 221.835938 151.199219 221.625 149.789062 221.753906 148.410156 C 221.960938 146.210938 225.582031 144.019531 226.796875 142.285156 Z M 226.796875 142.285156 " fill-opacity="1" fill-rule="evenodd"/></g></g></g><g clip-path="url(#739c00f7b7)"><g clip-path="url(#e733695b48)"><g clip-path="url(#ebaf310e9e)"><path fill="#e1ad37" d="M 222.699219 140.398438 L 222.683594 140.398438 C 222.421875 140.347656 222.152344 140.3125 221.871094 140.285156 C 220.898438 140.191406 218.640625 140.027344 217.28125 140.660156 C 216.496094 141.027344 215.976562 141.628906 215.953125 142.554688 C 215.917969 143.898438 216.792969 144.769531 218.027344 145.238281 C 219.566406 145.824219 221.667969 145.753906 222.816406 145.34375 C 223.027344 145.269531 223.230469 145.171875 223.429688 145.058594 C 223.460938 145.042969 223.492188 145.027344 223.523438 145.007812 C 223.171875 145.347656 222.835938 145.691406 222.542969 146.039062 C 221.898438 146.804688 221.445312 147.589844 221.371094 148.375 C 221.285156 149.304688 221.359375 150.246094 221.816406 150.929688 C 222.128906 151.398438 222.617188 151.761719 223.363281 151.921875 C 223.734375 152 224.097656 151.957031 224.441406 151.832031 C 224.902344 151.671875 225.328125 151.363281 225.675781 151.058594 C 226.253906 150.558594 226.703125 149.871094 227.023438 149.109375 C 227.476562 148.015625 227.679688 146.765625 227.671875 145.71875 L 227.671875 145.699219 C 228.070312 146.648438 228.417969 147.5625 228.941406 148.363281 C 229.363281 149.011719 229.898438 149.585938 230.644531 150.054688 C 231.027344 150.292969 231.570312 150.511719 232.089844 150.535156 C 232.496094 150.554688 232.886719 150.457031 233.203125 150.199219 C 233.515625 149.9375 233.679688 149.589844 233.742188 149.207031 C 233.820312 148.742188 233.734375 148.21875 233.664062 147.792969 C 233.519531 146.980469 233.121094 146.253906 232.578125 145.617188 C 232.054688 145.003906 231.394531 144.476562 230.730469 144.03125 C 232.167969 144.164062 233.582031 144.089844 234.351562 143.792969 C 235.292969 143.425781 236.097656 142.660156 236.449219 141.777344 C 236.820312 140.847656 236.710938 139.789062 235.769531 138.902344 C 235.074219 138.25 234.273438 138.078125 233.433594 138.1875 C 232.125 138.363281 230.710938 139.308594 229.570312 139.976562 C 230.414062 138.957031 231.363281 137.835938 231.941406 136.597656 C 232.375 135.664062 232.605469 134.667969 232.453125 133.601562 C 232.378906 133.058594 232.28125 132.472656 232.019531 132.007812 C 231.808594 131.644531 231.507812 131.34375 231.050781 131.167969 C 229.675781 130.636719 228.625 131.191406 227.851562 132.210938 C 226.890625 133.476562 226.386719 135.519531 226.210938 136.683594 C 226.160156 137.015625 226.117188 137.34375 226.09375 137.671875 C 226.078125 137.898438 226.070312 138.128906 226.074219 138.359375 L 226.089844 138.648438 C 225.664062 137.722656 225.261719 136.691406 224.742188 135.761719 C 224.285156 134.9375 223.738281 134.191406 223.03125 133.636719 C 222.550781 133.253906 221.894531 132.84375 221.25 132.75 C 220.734375 132.675781 220.21875 132.789062 219.773438 133.214844 C 218.734375 134.203125 218.765625 135.445312 219.335938 136.660156 C 220.058594 138.199219 221.679688 139.683594 222.59375 140.324219 Z M 227.632812 143.367188 L 227.667969 143.382812 C 228.03125 143.535156 228.382812 143.691406 228.734375 143.859375 C 228.960938 143.96875 229.1875 144.085938 229.414062 144.210938 C 230.277344 144.695312 231.242188 145.34375 231.941406 146.160156 C 232.390625 146.679688 232.726562 147.269531 232.84375 147.9375 C 232.90625 148.277344 232.988281 148.699219 232.925781 149.074219 C 232.894531 149.261719 232.828125 149.4375 232.675781 149.5625 C 232.476562 149.726562 232.210938 149.738281 231.953125 149.695312 C 231.632812 149.644531 231.3125 149.503906 231.078125 149.355469 C 230.4375 148.960938 229.984375 148.46875 229.625 147.917969 C 229.042969 147.03125 228.691406 145.996094 228.226562 144.941406 Z M 227.632812 142.4375 L 227.664062 142.453125 L 227.828125 142.527344 C 228.550781 142.835938 229.566406 143.046875 230.585938 143.15625 C 231.941406 143.300781 233.3125 143.269531 234.039062 142.988281 C 234.757812 142.707031 235.375 142.128906 235.640625 141.457031 C 235.886719 140.835938 235.800781 140.132812 235.171875 139.542969 C 234.519531 138.929688 233.730469 138.953125 232.933594 139.207031 C 231.589844 139.632812 230.214844 140.695312 229.214844 141.183594 C 229.050781 141.261719 228.890625 141.359375 228.734375 141.464844 C 228.488281 141.628906 228.253906 141.816406 228.035156 141.996094 C 227.945312 142.070312 227.835938 142.152344 227.730469 142.238281 C 227.695312 142.292969 227.65625 142.347656 227.617188 142.398438 L 227.597656 142.417969 Z M 226.417969 143.3125 C 225.464844 144.296875 224.082031 145.394531 223.128906 146.535156 C 222.597656 147.164062 222.199219 147.800781 222.140625 148.445312 C 222.082031 149.070312 222.089844 149.703125 222.308594 150.214844 C 222.5 150.675781 222.875 151.023438 223.527344 151.160156 C 223.8125 151.21875 224.089844 151.148438 224.347656 151.027344 C 224.652344 150.886719 224.925781 150.671875 225.164062 150.46875 C 225.773438 149.9375 226.199219 149.15625 226.476562 148.3125 C 226.761719 147.449219 226.886719 146.523438 226.878906 145.722656 C 226.875 145.328125 226.878906 144.953125 226.859375 144.574219 C 226.847656 144.332031 226.824219 144.09375 226.78125 143.847656 L 226.691406 143.246094 C 226.679688 143.214844 226.664062 143.1875 226.652344 143.15625 L 226.617188 143.179688 C 226.550781 143.222656 226.484375 143.269531 226.417969 143.3125 Z M 227.347656 141.273438 L 227.183594 140.929688 C 227.15625 140.847656 227.132812 140.769531 227.132812 140.683594 L 227.019531 138.335938 C 227.015625 138.085938 227.023438 137.835938 227.046875 137.589844 C 227.070312 137.335938 227.105469 137.082031 227.144531 136.824219 C 227.300781 135.769531 227.726562 133.917969 228.59375 132.773438 C 229.109375 132.089844 229.796875 131.679688 230.71875 132.03125 C 231.023438 132.148438 231.191406 132.375 231.300781 132.636719 C 231.441406 132.976562 231.492188 133.367188 231.542969 133.730469 C 231.671875 134.613281 231.472656 135.4375 231.113281 136.210938 C 230.542969 137.445312 229.570312 138.550781 228.742188 139.554688 C 228.429688 139.9375 228.144531 140.390625 227.816406 140.785156 C 227.691406 140.941406 227.558594 141.085938 227.417969 141.210938 C 227.394531 141.230469 227.371094 141.25 227.347656 141.273438 Z M 225.957031 142.351562 C 225.675781 142.539062 225.386719 142.722656 225.09375 142.898438 C 224.78125 143.085938 224.457031 143.269531 224.132812 143.433594 C 223.730469 143.636719 223.335938 143.917969 222.925781 144.140625 C 222.777344 144.226562 222.621094 144.300781 222.464844 144.355469 C 221.488281 144.707031 219.703125 144.761719 218.394531 144.269531 C 217.59375 143.964844 216.960938 143.449219 216.980469 142.582031 C 216.996094 141.898438 217.554688 141.589844 218.21875 141.410156 C 219.429688 141.085938 221.027344 141.226562 221.777344 141.296875 C 222.027344 141.320312 222.261719 141.351562 222.496094 141.394531 C 222.726562 141.4375 222.953125 141.492188 223.1875 141.566406 L 225.378906 142.222656 Z M 226.320312 141.328125 L 226.324219 141.339844 C 226.234375 141.308594 226.160156 141.28125 226.128906 141.269531 C 225.910156 141.179688 225.699219 141.074219 225.488281 140.964844 C 225.160156 140.792969 224.835938 140.605469 224.519531 140.425781 C 224.335938 140.320312 224.160156 140.207031 223.984375 140.085938 C 223.707031 139.898438 223.4375 139.699219 223.164062 139.507812 C 222.347656 138.9375 220.878906 137.621094 220.226562 136.242188 C 219.84375 135.429688 219.75 134.585938 220.445312 133.925781 C 220.710938 133.671875 221.023438 133.675781 221.328125 133.765625 C 221.734375 133.886719 222.125 134.15625 222.429688 134.398438 C 223.039062 134.878906 223.5 135.527344 223.898438 136.230469 C 224.527344 137.355469 224.988281 138.625 225.515625 139.679688 L 226.230469 141.144531 Z M 226.320312 141.328125 " fill-opacity="1" fill-rule="evenodd"/></g></g></g><g clip-path="url(#c04591fe68)"><g clip-path="url(#567af9f7ea)"><g clip-path="url(#747c9caa88)"><path fill="#e1ad37" d="M 246.902344 133.320312 C 246.941406 133.425781 246.601562 133.640625 246.53125 133.691406 C 246.054688 134.039062 245.546875 134.375 245.039062 134.664062 C 244.605469 134.910156 244.175781 135.277344 243.71875 135.46875 C 242.335938 136.046875 239.082031 136.011719 239.238281 133.964844 C 239.371094 132.246094 242.285156 132.332031 243.28125 132.375 C 243.671875 132.390625 244.019531 132.433594 244.390625 132.539062 C 244.914062 132.683594 245.449219 132.8125 245.980469 132.949219 C 246.148438 132.992188 246.355469 132.984375 246.507812 133.058594 C 246.589844 133.097656 246.8125 133.207031 246.773438 133.125 C 246.738281 133.058594 246.355469 132.957031 246.285156 132.929688 C 245.871094 132.765625 245.476562 132.542969 245.089844 132.324219 C 244.742188 132.128906 244.421875 131.886719 244.097656 131.65625 C 243.054688 130.925781 240.65625 128.519531 242.308594 126.878906 C 242.941406 126.25 243.734375 126.71875 244.230469 127.117188 C 245.386719 128.039062 245.800781 129.847656 246.386719 131.183594 C 246.546875 131.546875 246.679688 131.914062 246.851562 132.269531 C 246.933594 132.445312 246.992188 132.640625 247.074219 132.808594 C 247.09375 132.851562 247.105469 132.949219 247.105469 132.949219 C 247.105469 132.949219 247.054688 132.863281 247.042969 132.816406 C 246.980469 132.589844 246.855469 132.355469 246.863281 132.105469 C 246.875 131.519531 246.859375 130.898438 246.878906 130.296875 C 246.890625 129.878906 246.960938 129.476562 247.042969 129.0625 C 247.328125 127.59375 248.363281 124.210938 250.371094 124.917969 C 251 125.136719 251.058594 125.84375 251.109375 126.464844 C 251.265625 128.3125 249.828125 129.953125 248.703125 131.34375 C 248.347656 131.785156 248.023438 132.339844 247.609375 132.714844 C 247.4375 132.871094 247.328125 133.113281 247.160156 133.28125 C 247.140625 133.296875 247.101562 133.328125 247.101562 133.328125 L 247.167969 133.230469 C 247.28125 133.066406 247.488281 132.917969 247.632812 132.792969 C 247.929688 132.53125 248.269531 132.257812 248.609375 132.070312 C 249.925781 131.351562 252.121094 129.308594 253.453125 130.601562 C 254.554688 131.671875 253.59375 133.300781 252.335938 133.867188 C 251.1875 134.382812 248.097656 134.261719 247.058594 133.53125 C 247.007812 133.496094 247.160156 133.617188 247.21875 133.644531 C 247.351562 133.707031 247.5 133.769531 247.640625 133.824219 C 248.082031 133.996094 248.511719 134.175781 248.929688 134.40625 C 250.011719 135 251.292969 135.953125 251.453125 137.351562 C 251.511719 137.84375 251.585938 138.523438 251.136719 138.917969 C 250.6875 139.3125 250.003906 139.113281 249.605469 138.871094 C 248.363281 138.109375 248.078125 136.796875 247.570312 135.445312 C 247.414062 135.023438 247.320312 134.585938 247.164062 134.164062 C 247.148438 134.117188 246.9375 133.707031 247.003906 133.613281 C 247.070312 133.519531 247.0625 133.816406 247.074219 133.921875 C 247.09375 134.097656 247.097656 134.277344 247.117188 134.453125 C 247.175781 134.957031 247.136719 135.433594 247.113281 135.945312 C 247.054688 137.242188 246.558594 138.976562 245.53125 139.910156 C 245.121094 140.28125 244.578125 140.679688 244.035156 140.589844 C 242.859375 140.390625 242.761719 139.316406 242.914062 138.246094 C 243.15625 136.542969 245.929688 134.707031 246.902344 133.320312 Z M 246.902344 133.320312 " fill-opacity="1" fill-rule="evenodd"/></g></g></g><g clip-path="url(#73f1547da0)"><g clip-path="url(#f940f5882f)"><g clip-path="url(#86fe4c8bdd)"><path fill="#e1ad37" d="M 243.566406 131.882812 C 243.480469 131.875 243.390625 131.871094 243.300781 131.867188 C 242.554688 131.832031 240.8125 131.804688 239.761719 132.390625 C 239.179688 132.714844 238.78125 133.207031 238.726562 133.925781 C 238.636719 135.054688 239.3125 135.742188 240.296875 136.074219 C 241.386719 136.445312 242.878906 136.335938 243.785156 136 C 243.6875 136.109375 243.597656 136.214844 243.507812 136.320312 C 242.992188 136.945312 242.621094 137.578125 242.53125 138.191406 C 242.429688 138.917969 242.449219 139.644531 242.746094 140.167969 C 242.972656 140.566406 243.355469 140.871094 243.972656 140.972656 C 244.269531 141.023438 244.566406 140.96875 244.855469 140.847656 C 245.199219 140.699219 245.523438 140.445312 245.796875 140.199219 C 246.351562 139.695312 246.765625 138.980469 247.050781 138.214844 C 247.273438 137.609375 247.414062 136.972656 247.480469 136.390625 C 247.671875 136.929688 247.863281 137.449219 248.136719 137.914062 C 248.4375 138.425781 248.824219 138.871094 249.390625 139.21875 C 249.691406 139.40625 250.128906 139.5625 250.546875 139.554688 C 250.855469 139.546875 251.15625 139.449219 251.410156 139.230469 C 251.65625 139.011719 251.796875 138.734375 251.863281 138.4375 C 251.945312 138.058594 251.90625 137.640625 251.867188 137.304688 C 251.792969 136.671875 251.523438 136.113281 251.144531 135.632812 C 250.832031 135.242188 250.449219 134.898438 250.042969 134.609375 C 251.027344 134.625 251.96875 134.503906 252.511719 134.257812 C 253.375 133.871094 254.109375 133.046875 254.3125 132.1875 C 254.46875 131.53125 254.335938 130.851562 253.757812 130.289062 C 253.207031 129.753906 252.546875 129.652344 251.839844 129.808594 C 251.121094 129.96875 250.355469 130.433594 249.65625 130.886719 C 250.171875 130.242188 250.683594 129.550781 251.046875 128.820312 C 251.421875 128.0625 251.640625 127.265625 251.570312 126.425781 C 251.535156 126.003906 251.484375 125.550781 251.3125 125.191406 C 251.152344 124.871094 250.910156 124.617188 250.523438 124.480469 C 249.464844 124.105469 248.605469 124.597656 247.957031 125.480469 C 247.203125 126.5 246.757812 128.074219 246.578125 128.972656 C 246.527344 129.230469 246.480469 129.484375 246.449219 129.742188 C 246.441406 129.820312 246.429688 129.898438 246.425781 129.976562 C 246.167969 129.285156 245.898438 128.566406 245.535156 127.941406 C 245.261719 127.472656 244.9375 127.058594 244.535156 126.734375 C 244.15625 126.433594 243.632812 126.121094 243.109375 126.085938 C 242.71875 126.0625 242.324219 126.175781 241.960938 126.53125 C 241.15625 127.332031 241.109375 128.277344 241.445312 129.191406 C 241.851562 130.285156 242.867188 131.324219 243.566406 131.882812 Z M 247.621094 134.269531 C 247.789062 134.339844 247.957031 134.40625 248.121094 134.480469 C 248.328125 134.570312 248.527344 134.667969 248.726562 134.773438 C 249.335938 135.105469 250.015625 135.558594 250.488281 136.152344 C 250.777344 136.511719 250.984375 136.925781 251.042969 137.398438 C 251.066406 137.621094 251.101562 137.882812 251.074219 138.136719 C 251.054688 138.3125 251.003906 138.484375 250.863281 138.609375 C 250.734375 138.722656 250.570312 138.742188 250.410156 138.726562 C 250.191406 138.703125 249.976562 138.617188 249.820312 138.519531 C 249.378906 138.25 249.074219 137.898438 248.839844 137.5 C 248.457031 136.851562 248.242188 136.082031 247.949219 135.304688 Z M 247.660156 133.371094 L 247.925781 133.128906 C 248.09375 132.984375 248.277344 132.832031 248.464844 132.695312 C 248.582031 132.609375 248.703125 132.527344 248.824219 132.460938 C 249.566406 132.054688 250.589844 131.210938 251.582031 130.8125 C 252.152344 130.582031 252.710938 130.492188 253.148438 130.917969 C 253.5625 131.320312 253.570312 131.832031 253.359375 132.292969 C 253.136719 132.792969 252.675781 133.238281 252.160156 133.472656 C 251.628906 133.710938 250.652344 133.789062 249.6875 133.738281 C 248.957031 133.699219 248.230469 133.59375 247.71875 133.394531 Z M 246.511719 134.351562 L 246.65625 134.25 L 246.695312 134.222656 L 246.71875 134.5 C 246.742188 134.683594 246.75 134.867188 246.75 135.050781 C 246.75 135.339844 246.730469 135.628906 246.714844 135.929688 C 246.6875 136.542969 246.558594 137.265625 246.308594 137.941406 C 246.074219 138.585938 245.730469 139.195312 245.269531 139.621094 C 245.089844 139.78125 244.886719 139.953125 244.664062 140.070312 C 244.484375 140.167969 244.292969 140.238281 244.101562 140.207031 C 243.667969 140.132812 243.4375 139.902344 243.332031 139.585938 C 243.210938 139.214844 243.230469 138.757812 243.296875 138.300781 C 243.363281 137.808594 243.683594 137.308594 244.097656 136.808594 C 244.800781 135.953125 245.777344 135.109375 246.511719 134.351562 Z M 247.382812 132.308594 L 247.363281 132.257812 C 247.347656 132.210938 247.339844 132.164062 247.339844 132.117188 L 247.351562 130.3125 C 247.359375 130.117188 247.375 129.929688 247.402344 129.742188 C 247.429688 129.546875 247.464844 129.351562 247.503906 129.152344 C 247.660156 128.351562 248.042969 126.945312 248.710938 126.03125 C 249.097656 125.5 249.582031 125.132812 250.214844 125.355469 C 250.390625 125.414062 250.472656 125.554688 250.527344 125.714844 C 250.609375 125.957031 250.628906 126.238281 250.652344 126.503906 C 250.710938 127.171875 250.523438 127.808594 250.226562 128.414062 C 249.753906 129.375 248.996094 130.257812 248.351562 131.058594 C 248.105469 131.363281 247.871094 131.726562 247.617188 132.046875 C 247.539062 132.136719 247.464844 132.226562 247.382812 132.308594 Z M 245.953125 133.457031 C 245.808594 133.558594 245.660156 133.660156 245.511719 133.757812 C 245.269531 133.917969 245.023438 134.066406 244.78125 134.207031 C 244.472656 134.382812 244.167969 134.613281 243.855469 134.804688 C 243.742188 134.875 243.628906 134.9375 243.515625 134.984375 C 242.808594 135.285156 241.539062 135.398438 240.625 135.09375 C 240.109375 134.917969 239.707031 134.597656 239.75 134.003906 C 239.789062 133.527344 240.171875 133.285156 240.617188 133.128906 C 241.515625 132.8125 242.707031 132.859375 243.257812 132.882812 C 243.4375 132.886719 243.605469 132.902344 243.769531 132.925781 C 243.929688 132.949219 244.089844 132.980469 244.253906 133.027344 L 245.855469 133.4375 Z M 246.398438 132.433594 C 246.273438 132.382812 246.144531 132.324219 246.019531 132.261719 C 245.789062 132.144531 245.558594 132.015625 245.332031 131.886719 C 245.207031 131.816406 245.082031 131.738281 244.964844 131.65625 C 244.765625 131.523438 244.578125 131.382812 244.382812 131.25 C 243.804688 130.84375 242.757812 129.878906 242.371094 128.84375 C 242.164062 128.292969 242.164062 127.714844 242.652344 127.226562 C 242.816406 127.0625 243.003906 127.039062 243.179688 127.082031 C 243.460938 127.148438 243.722656 127.335938 243.925781 127.496094 C 244.34375 127.828125 244.648438 128.296875 244.902344 128.8125 C 245.316406 129.644531 245.601562 130.59375 245.949219 131.375 Z M 246.398438 132.433594 " fill-opacity="1" fill-rule="evenodd"/></g></g></g><g clip-path="url(#0d0385711f)"><g clip-path="url(#f679622bbd)"><g clip-path="url(#0daf7f6f62)"><path fill="#ae7b37" d="M 227.28125 140.636719 C 227.472656 140.765625 227.628906 140.929688 227.757812 141.117188 C 227.882812 141.304688 227.96875 141.507812 228.015625 141.722656 C 228.066406 141.9375 228.066406 142.152344 228.027344 142.363281 C 227.988281 142.574219 227.90625 142.765625 227.785156 142.9375 C 227.664062 143.113281 227.507812 143.253906 227.324219 143.363281 C 227.140625 143.472656 226.9375 143.542969 226.71875 143.570312 C 226.5 143.601562 226.28125 143.585938 226.058594 143.53125 C 225.839844 143.476562 225.636719 143.382812 225.445312 143.25 C 225.257812 143.117188 225.101562 142.957031 224.972656 142.769531 C 224.847656 142.578125 224.757812 142.375 224.710938 142.160156 C 224.664062 141.945312 224.660156 141.730469 224.703125 141.519531 C 224.742188 141.308594 224.824219 141.117188 224.945312 140.945312 C 225.066406 140.773438 225.21875 140.628906 225.40625 140.519531 C 225.589844 140.410156 225.789062 140.34375 226.011719 140.3125 C 226.230469 140.285156 226.449219 140.296875 226.667969 140.351562 C 226.890625 140.410156 227.09375 140.503906 227.28125 140.636719 Z M 227.28125 140.636719 " fill-opacity="1" fill-rule="nonzero"/></g></g></g><g clip-path="url(#8697544459)"><g clip-path="url(#c66e11e91d)"><g clip-path="url(#542ae4fcb5)"><path fill="#ae7b37" d="M 224.636719 140.730469 C 224.304688 141.1875 224.214844 141.75 224.335938 142.285156 C 224.445312 142.785156 224.746094 143.253906 225.207031 143.585938 C 225.675781 143.925781 226.222656 144.054688 226.734375 144.003906 C 227.296875 143.949219 227.8125 143.671875 228.15625 143.199219 C 228.5 142.722656 228.59375 142.136719 228.46875 141.578125 C 228.351562 141.066406 228.042969 140.578125 227.5625 140.234375 C 227.082031 139.886719 226.515625 139.75 225.988281 139.800781 C 225.402344 139.859375 224.867188 140.152344 224.511719 140.640625 Z M 225.378906 141.25 C 225.546875 141 225.8125 140.851562 226.101562 140.816406 C 226.398438 140.777344 226.722656 140.847656 227 141.035156 C 227.285156 141.230469 227.476562 141.503906 227.550781 141.800781 C 227.628906 142.097656 227.59375 142.417969 227.414062 142.679688 C 227.234375 142.945312 226.949219 143.105469 226.636719 143.144531 C 226.320312 143.183594 225.980469 143.109375 225.683594 142.910156 C 225.386719 142.707031 225.183594 142.414062 225.105469 142.101562 C 225.023438 141.78125 225.0625 141.441406 225.253906 141.160156 Z M 225.378906 141.25 " fill-opacity="1" fill-rule="evenodd"/></g></g></g></svg>